G04 #@! TF.GenerationSoftware,KiCad,Pcbnew,(5.1.4)-1*
G04 #@! TF.CreationDate,2020-08-02T15:41:35-03:00*
G04 #@! TF.ProjectId,esp32_energy_monitor,65737033-325f-4656-9e65-7267795f6d6f,A*
G04 #@! TF.SameCoordinates,PX6d8d2a8PY639eee0*
G04 #@! TF.FileFunction,Paste,Bot*
G04 #@! TF.FilePolarity,Positive*
%FSLAX46Y46*%
G04 Gerber Fmt 4.6, Leading zero omitted, Abs format (unit mm)*
G04 Created by KiCad (PCBNEW (5.1.4)-1) date 2020-08-02 15:41:36*
%MOMM*%
%LPD*%
G04 APERTURE LIST*
%ADD10R,0.800000X0.750000*%
%ADD11R,0.750000X0.800000*%
%ADD12R,3.350000X3.350000*%
%ADD13R,0.300000X1.000000*%
%ADD14R,1.000000X0.300000*%
%ADD15R,0.500000X0.900000*%
%ADD16R,0.900000X0.500000*%
G04 APERTURE END LIST*
D10*
G04 #@! TO.C,C1*
X2377000Y11460000D03*
X3877000Y11460000D03*
G04 #@! TD*
D11*
G04 #@! TO.C,C10*
X10027000Y26710000D03*
X10027000Y25210000D03*
G04 #@! TD*
G04 #@! TO.C,C11*
X8727000Y23410000D03*
X8727000Y24910000D03*
G04 #@! TD*
D12*
G04 #@! TO.C,IC2*
X12527000Y21260000D03*
D13*
X11027000Y18910000D03*
X11527000Y18910000D03*
X12027000Y18910000D03*
X12527000Y18910000D03*
X13027000Y18910000D03*
X13527000Y18910000D03*
X14027000Y18910000D03*
D14*
X14877000Y19760000D03*
X14877000Y20260000D03*
X14877000Y20760000D03*
X14877000Y21260000D03*
X14877000Y21760000D03*
X14877000Y22260000D03*
X14877000Y22760000D03*
D13*
X14027000Y23610000D03*
X13527000Y23610000D03*
X13027000Y23610000D03*
X12527000Y23610000D03*
X12027000Y23610000D03*
X11527000Y23610000D03*
X11027000Y23610000D03*
D14*
X10177000Y22760000D03*
X10177000Y22260000D03*
X10177000Y21760000D03*
X10177000Y21260000D03*
X10177000Y20760000D03*
X10177000Y20260000D03*
X10177000Y19760000D03*
G04 #@! TD*
D15*
G04 #@! TO.C,R3*
X2377000Y9860000D03*
X3877000Y9860000D03*
G04 #@! TD*
D16*
G04 #@! TO.C,R10*
X13427000Y25810000D03*
X13427000Y27310000D03*
G04 #@! TD*
G04 #@! TO.C,R11*
X11827000Y27310000D03*
X11827000Y25810000D03*
G04 #@! TD*
G04 #@! TO.C,R12*
X15027000Y25810000D03*
X15027000Y27310000D03*
G04 #@! TD*
M02*
