G04 #@! TF.GenerationSoftware,KiCad,Pcbnew,(5.1.4)-1*
G04 #@! TF.CreationDate,2020-08-02T15:41:36-03:00*
G04 #@! TF.ProjectId,esp32_energy_monitor,65737033-325f-4656-9e65-7267795f6d6f,A*
G04 #@! TF.SameCoordinates,PX6d8d2a8PY639eee0*
G04 #@! TF.FileFunction,Soldermask,Bot*
G04 #@! TF.FilePolarity,Negative*
%FSLAX46Y46*%
G04 Gerber Fmt 4.6, Leading zero omitted, Abs format (unit mm)*
G04 Created by KiCad (PCBNEW (5.1.4)-1) date 2020-08-02 15:41:36*
%MOMM*%
%LPD*%
G04 APERTURE LIST*
%ADD10C,0.100000*%
G04 APERTURE END LIST*
D10*
G36*
X51851549Y3588884D02*
G01*
X51962734Y3566768D01*
X52172203Y3480003D01*
X52360720Y3354040D01*
X52521040Y3193720D01*
X52614942Y3053185D01*
X52647004Y3005201D01*
X52733768Y2795733D01*
X52774766Y2589625D01*
X52778000Y2573364D01*
X52778000Y2346636D01*
X52733768Y2124266D01*
X52647003Y1914797D01*
X52521040Y1726280D01*
X52360720Y1565960D01*
X52172203Y1439997D01*
X51962734Y1353232D01*
X51851549Y1331116D01*
X51740365Y1309000D01*
X51513635Y1309000D01*
X51402451Y1331116D01*
X51291266Y1353232D01*
X51081797Y1439997D01*
X50893280Y1565960D01*
X50732960Y1726280D01*
X50606997Y1914797D01*
X50520232Y2124266D01*
X50476000Y2346636D01*
X50476000Y2573364D01*
X50479235Y2589625D01*
X50520232Y2795733D01*
X50606996Y3005201D01*
X50639058Y3053185D01*
X50732960Y3193720D01*
X50893280Y3354040D01*
X51081797Y3480003D01*
X51291266Y3566768D01*
X51402451Y3588884D01*
X51513635Y3611000D01*
X51740365Y3611000D01*
X51851549Y3588884D01*
X51851549Y3588884D01*
G37*
G36*
X2851549Y3588884D02*
G01*
X2962734Y3566768D01*
X3172203Y3480003D01*
X3360720Y3354040D01*
X3521040Y3193720D01*
X3614942Y3053185D01*
X3647004Y3005201D01*
X3733768Y2795733D01*
X3774766Y2589625D01*
X3778000Y2573364D01*
X3778000Y2346636D01*
X3733768Y2124266D01*
X3647003Y1914797D01*
X3521040Y1726280D01*
X3360720Y1565960D01*
X3172203Y1439997D01*
X2962734Y1353232D01*
X2851549Y1331116D01*
X2740365Y1309000D01*
X2513635Y1309000D01*
X2402451Y1331116D01*
X2291266Y1353232D01*
X2081797Y1439997D01*
X1893280Y1565960D01*
X1732960Y1726280D01*
X1606997Y1914797D01*
X1520232Y2124266D01*
X1476000Y2346636D01*
X1476000Y2573364D01*
X1479235Y2589625D01*
X1520232Y2795733D01*
X1606996Y3005201D01*
X1639058Y3053185D01*
X1732960Y3193720D01*
X1893280Y3354040D01*
X2081797Y3480003D01*
X2291266Y3566768D01*
X2402451Y3588884D01*
X2513635Y3611000D01*
X2740365Y3611000D01*
X2851549Y3588884D01*
X2851549Y3588884D01*
G37*
G36*
X6198442Y3307482D02*
G01*
X6264627Y3300963D01*
X6434466Y3249443D01*
X6590991Y3165778D01*
X6626729Y3136448D01*
X6728186Y3053186D01*
X6811448Y2951729D01*
X6840778Y2915991D01*
X6924443Y2759466D01*
X6975963Y2589627D01*
X6993359Y2413000D01*
X6975963Y2236373D01*
X6924443Y2066534D01*
X6840778Y1910009D01*
X6811448Y1874271D01*
X6728186Y1772814D01*
X6626729Y1689552D01*
X6590991Y1660222D01*
X6434466Y1576557D01*
X6264627Y1525037D01*
X6198443Y1518519D01*
X6132260Y1512000D01*
X6043740Y1512000D01*
X5977557Y1518519D01*
X5911373Y1525037D01*
X5741534Y1576557D01*
X5585009Y1660222D01*
X5549271Y1689552D01*
X5447814Y1772814D01*
X5364552Y1874271D01*
X5335222Y1910009D01*
X5251557Y2066534D01*
X5200037Y2236373D01*
X5182641Y2413000D01*
X5200037Y2589627D01*
X5251557Y2759466D01*
X5335222Y2915991D01*
X5364552Y2951729D01*
X5447814Y3053186D01*
X5549271Y3136448D01*
X5585009Y3165778D01*
X5741534Y3249443D01*
X5911373Y3300963D01*
X5977558Y3307482D01*
X6043740Y3314000D01*
X6132260Y3314000D01*
X6198442Y3307482D01*
X6198442Y3307482D01*
G37*
G36*
X45089000Y1512000D02*
G01*
X43287000Y1512000D01*
X43287000Y3314000D01*
X45089000Y3314000D01*
X45089000Y1512000D01*
X45089000Y1512000D01*
G37*
G36*
X41758442Y3307482D02*
G01*
X41824627Y3300963D01*
X41994466Y3249443D01*
X42150991Y3165778D01*
X42186729Y3136448D01*
X42288186Y3053186D01*
X42371448Y2951729D01*
X42400778Y2915991D01*
X42484443Y2759466D01*
X42535963Y2589627D01*
X42553359Y2413000D01*
X42535963Y2236373D01*
X42484443Y2066534D01*
X42400778Y1910009D01*
X42371448Y1874271D01*
X42288186Y1772814D01*
X42186729Y1689552D01*
X42150991Y1660222D01*
X41994466Y1576557D01*
X41824627Y1525037D01*
X41758443Y1518519D01*
X41692260Y1512000D01*
X41603740Y1512000D01*
X41537557Y1518519D01*
X41471373Y1525037D01*
X41301534Y1576557D01*
X41145009Y1660222D01*
X41109271Y1689552D01*
X41007814Y1772814D01*
X40924552Y1874271D01*
X40895222Y1910009D01*
X40811557Y2066534D01*
X40760037Y2236373D01*
X40742641Y2413000D01*
X40760037Y2589627D01*
X40811557Y2759466D01*
X40895222Y2915991D01*
X40924552Y2951729D01*
X41007814Y3053186D01*
X41109271Y3136448D01*
X41145009Y3165778D01*
X41301534Y3249443D01*
X41471373Y3300963D01*
X41537558Y3307482D01*
X41603740Y3314000D01*
X41692260Y3314000D01*
X41758442Y3307482D01*
X41758442Y3307482D01*
G37*
G36*
X39218442Y3307482D02*
G01*
X39284627Y3300963D01*
X39454466Y3249443D01*
X39610991Y3165778D01*
X39646729Y3136448D01*
X39748186Y3053186D01*
X39831448Y2951729D01*
X39860778Y2915991D01*
X39944443Y2759466D01*
X39995963Y2589627D01*
X40013359Y2413000D01*
X39995963Y2236373D01*
X39944443Y2066534D01*
X39860778Y1910009D01*
X39831448Y1874271D01*
X39748186Y1772814D01*
X39646729Y1689552D01*
X39610991Y1660222D01*
X39454466Y1576557D01*
X39284627Y1525037D01*
X39218443Y1518519D01*
X39152260Y1512000D01*
X39063740Y1512000D01*
X38997557Y1518519D01*
X38931373Y1525037D01*
X38761534Y1576557D01*
X38605009Y1660222D01*
X38569271Y1689552D01*
X38467814Y1772814D01*
X38384552Y1874271D01*
X38355222Y1910009D01*
X38271557Y2066534D01*
X38220037Y2236373D01*
X38202641Y2413000D01*
X38220037Y2589627D01*
X38271557Y2759466D01*
X38355222Y2915991D01*
X38384552Y2951729D01*
X38467814Y3053186D01*
X38569271Y3136448D01*
X38605009Y3165778D01*
X38761534Y3249443D01*
X38931373Y3300963D01*
X38997558Y3307482D01*
X39063740Y3314000D01*
X39152260Y3314000D01*
X39218442Y3307482D01*
X39218442Y3307482D01*
G37*
G36*
X34138442Y3307482D02*
G01*
X34204627Y3300963D01*
X34374466Y3249443D01*
X34530991Y3165778D01*
X34566729Y3136448D01*
X34668186Y3053186D01*
X34751448Y2951729D01*
X34780778Y2915991D01*
X34864443Y2759466D01*
X34915963Y2589627D01*
X34933359Y2413000D01*
X34915963Y2236373D01*
X34864443Y2066534D01*
X34780778Y1910009D01*
X34751448Y1874271D01*
X34668186Y1772814D01*
X34566729Y1689552D01*
X34530991Y1660222D01*
X34374466Y1576557D01*
X34204627Y1525037D01*
X34138443Y1518519D01*
X34072260Y1512000D01*
X33983740Y1512000D01*
X33917557Y1518519D01*
X33851373Y1525037D01*
X33681534Y1576557D01*
X33525009Y1660222D01*
X33489271Y1689552D01*
X33387814Y1772814D01*
X33304552Y1874271D01*
X33275222Y1910009D01*
X33191557Y2066534D01*
X33140037Y2236373D01*
X33122641Y2413000D01*
X33140037Y2589627D01*
X33191557Y2759466D01*
X33275222Y2915991D01*
X33304552Y2951729D01*
X33387814Y3053186D01*
X33489271Y3136448D01*
X33525009Y3165778D01*
X33681534Y3249443D01*
X33851373Y3300963D01*
X33917558Y3307482D01*
X33983740Y3314000D01*
X34072260Y3314000D01*
X34138442Y3307482D01*
X34138442Y3307482D01*
G37*
G36*
X31598442Y3307482D02*
G01*
X31664627Y3300963D01*
X31834466Y3249443D01*
X31990991Y3165778D01*
X32026729Y3136448D01*
X32128186Y3053186D01*
X32211448Y2951729D01*
X32240778Y2915991D01*
X32324443Y2759466D01*
X32375963Y2589627D01*
X32393359Y2413000D01*
X32375963Y2236373D01*
X32324443Y2066534D01*
X32240778Y1910009D01*
X32211448Y1874271D01*
X32128186Y1772814D01*
X32026729Y1689552D01*
X31990991Y1660222D01*
X31834466Y1576557D01*
X31664627Y1525037D01*
X31598443Y1518519D01*
X31532260Y1512000D01*
X31443740Y1512000D01*
X31377557Y1518519D01*
X31311373Y1525037D01*
X31141534Y1576557D01*
X30985009Y1660222D01*
X30949271Y1689552D01*
X30847814Y1772814D01*
X30764552Y1874271D01*
X30735222Y1910009D01*
X30651557Y2066534D01*
X30600037Y2236373D01*
X30582641Y2413000D01*
X30600037Y2589627D01*
X30651557Y2759466D01*
X30735222Y2915991D01*
X30764552Y2951729D01*
X30847814Y3053186D01*
X30949271Y3136448D01*
X30985009Y3165778D01*
X31141534Y3249443D01*
X31311373Y3300963D01*
X31377558Y3307482D01*
X31443740Y3314000D01*
X31532260Y3314000D01*
X31598442Y3307482D01*
X31598442Y3307482D01*
G37*
G36*
X36678442Y3307482D02*
G01*
X36744627Y3300963D01*
X36914466Y3249443D01*
X37070991Y3165778D01*
X37106729Y3136448D01*
X37208186Y3053186D01*
X37291448Y2951729D01*
X37320778Y2915991D01*
X37404443Y2759466D01*
X37455963Y2589627D01*
X37473359Y2413000D01*
X37455963Y2236373D01*
X37404443Y2066534D01*
X37320778Y1910009D01*
X37291448Y1874271D01*
X37208186Y1772814D01*
X37106729Y1689552D01*
X37070991Y1660222D01*
X36914466Y1576557D01*
X36744627Y1525037D01*
X36678443Y1518519D01*
X36612260Y1512000D01*
X36523740Y1512000D01*
X36457557Y1518519D01*
X36391373Y1525037D01*
X36221534Y1576557D01*
X36065009Y1660222D01*
X36029271Y1689552D01*
X35927814Y1772814D01*
X35844552Y1874271D01*
X35815222Y1910009D01*
X35731557Y2066534D01*
X35680037Y2236373D01*
X35662641Y2413000D01*
X35680037Y2589627D01*
X35731557Y2759466D01*
X35815222Y2915991D01*
X35844552Y2951729D01*
X35927814Y3053186D01*
X36029271Y3136448D01*
X36065009Y3165778D01*
X36221534Y3249443D01*
X36391373Y3300963D01*
X36457558Y3307482D01*
X36523740Y3314000D01*
X36612260Y3314000D01*
X36678442Y3307482D01*
X36678442Y3307482D01*
G37*
G36*
X26518442Y3307482D02*
G01*
X26584627Y3300963D01*
X26754466Y3249443D01*
X26910991Y3165778D01*
X26946729Y3136448D01*
X27048186Y3053186D01*
X27131448Y2951729D01*
X27160778Y2915991D01*
X27244443Y2759466D01*
X27295963Y2589627D01*
X27313359Y2413000D01*
X27295963Y2236373D01*
X27244443Y2066534D01*
X27160778Y1910009D01*
X27131448Y1874271D01*
X27048186Y1772814D01*
X26946729Y1689552D01*
X26910991Y1660222D01*
X26754466Y1576557D01*
X26584627Y1525037D01*
X26518443Y1518519D01*
X26452260Y1512000D01*
X26363740Y1512000D01*
X26297557Y1518519D01*
X26231373Y1525037D01*
X26061534Y1576557D01*
X25905009Y1660222D01*
X25869271Y1689552D01*
X25767814Y1772814D01*
X25684552Y1874271D01*
X25655222Y1910009D01*
X25571557Y2066534D01*
X25520037Y2236373D01*
X25502641Y2413000D01*
X25520037Y2589627D01*
X25571557Y2759466D01*
X25655222Y2915991D01*
X25684552Y2951729D01*
X25767814Y3053186D01*
X25869271Y3136448D01*
X25905009Y3165778D01*
X26061534Y3249443D01*
X26231373Y3300963D01*
X26297558Y3307482D01*
X26363740Y3314000D01*
X26452260Y3314000D01*
X26518442Y3307482D01*
X26518442Y3307482D01*
G37*
G36*
X21438442Y3307482D02*
G01*
X21504627Y3300963D01*
X21674466Y3249443D01*
X21830991Y3165778D01*
X21866729Y3136448D01*
X21968186Y3053186D01*
X22051448Y2951729D01*
X22080778Y2915991D01*
X22164443Y2759466D01*
X22215963Y2589627D01*
X22233359Y2413000D01*
X22215963Y2236373D01*
X22164443Y2066534D01*
X22080778Y1910009D01*
X22051448Y1874271D01*
X21968186Y1772814D01*
X21866729Y1689552D01*
X21830991Y1660222D01*
X21674466Y1576557D01*
X21504627Y1525037D01*
X21438443Y1518519D01*
X21372260Y1512000D01*
X21283740Y1512000D01*
X21217557Y1518519D01*
X21151373Y1525037D01*
X20981534Y1576557D01*
X20825009Y1660222D01*
X20789271Y1689552D01*
X20687814Y1772814D01*
X20604552Y1874271D01*
X20575222Y1910009D01*
X20491557Y2066534D01*
X20440037Y2236373D01*
X20422641Y2413000D01*
X20440037Y2589627D01*
X20491557Y2759466D01*
X20575222Y2915991D01*
X20604552Y2951729D01*
X20687814Y3053186D01*
X20789271Y3136448D01*
X20825009Y3165778D01*
X20981534Y3249443D01*
X21151373Y3300963D01*
X21217558Y3307482D01*
X21283740Y3314000D01*
X21372260Y3314000D01*
X21438442Y3307482D01*
X21438442Y3307482D01*
G37*
G36*
X18898442Y3307482D02*
G01*
X18964627Y3300963D01*
X19134466Y3249443D01*
X19290991Y3165778D01*
X19326729Y3136448D01*
X19428186Y3053186D01*
X19511448Y2951729D01*
X19540778Y2915991D01*
X19624443Y2759466D01*
X19675963Y2589627D01*
X19693359Y2413000D01*
X19675963Y2236373D01*
X19624443Y2066534D01*
X19540778Y1910009D01*
X19511448Y1874271D01*
X19428186Y1772814D01*
X19326729Y1689552D01*
X19290991Y1660222D01*
X19134466Y1576557D01*
X18964627Y1525037D01*
X18898443Y1518519D01*
X18832260Y1512000D01*
X18743740Y1512000D01*
X18677557Y1518519D01*
X18611373Y1525037D01*
X18441534Y1576557D01*
X18285009Y1660222D01*
X18249271Y1689552D01*
X18147814Y1772814D01*
X18064552Y1874271D01*
X18035222Y1910009D01*
X17951557Y2066534D01*
X17900037Y2236373D01*
X17882641Y2413000D01*
X17900037Y2589627D01*
X17951557Y2759466D01*
X18035222Y2915991D01*
X18064552Y2951729D01*
X18147814Y3053186D01*
X18249271Y3136448D01*
X18285009Y3165778D01*
X18441534Y3249443D01*
X18611373Y3300963D01*
X18677558Y3307482D01*
X18743740Y3314000D01*
X18832260Y3314000D01*
X18898442Y3307482D01*
X18898442Y3307482D01*
G37*
G36*
X16358442Y3307482D02*
G01*
X16424627Y3300963D01*
X16594466Y3249443D01*
X16750991Y3165778D01*
X16786729Y3136448D01*
X16888186Y3053186D01*
X16971448Y2951729D01*
X17000778Y2915991D01*
X17084443Y2759466D01*
X17135963Y2589627D01*
X17153359Y2413000D01*
X17135963Y2236373D01*
X17084443Y2066534D01*
X17000778Y1910009D01*
X16971448Y1874271D01*
X16888186Y1772814D01*
X16786729Y1689552D01*
X16750991Y1660222D01*
X16594466Y1576557D01*
X16424627Y1525037D01*
X16358443Y1518519D01*
X16292260Y1512000D01*
X16203740Y1512000D01*
X16137557Y1518519D01*
X16071373Y1525037D01*
X15901534Y1576557D01*
X15745009Y1660222D01*
X15709271Y1689552D01*
X15607814Y1772814D01*
X15524552Y1874271D01*
X15495222Y1910009D01*
X15411557Y2066534D01*
X15360037Y2236373D01*
X15342641Y2413000D01*
X15360037Y2589627D01*
X15411557Y2759466D01*
X15495222Y2915991D01*
X15524552Y2951729D01*
X15607814Y3053186D01*
X15709271Y3136448D01*
X15745009Y3165778D01*
X15901534Y3249443D01*
X16071373Y3300963D01*
X16137558Y3307482D01*
X16203740Y3314000D01*
X16292260Y3314000D01*
X16358442Y3307482D01*
X16358442Y3307482D01*
G37*
G36*
X13818442Y3307482D02*
G01*
X13884627Y3300963D01*
X14054466Y3249443D01*
X14210991Y3165778D01*
X14246729Y3136448D01*
X14348186Y3053186D01*
X14431448Y2951729D01*
X14460778Y2915991D01*
X14544443Y2759466D01*
X14595963Y2589627D01*
X14613359Y2413000D01*
X14595963Y2236373D01*
X14544443Y2066534D01*
X14460778Y1910009D01*
X14431448Y1874271D01*
X14348186Y1772814D01*
X14246729Y1689552D01*
X14210991Y1660222D01*
X14054466Y1576557D01*
X13884627Y1525037D01*
X13818443Y1518519D01*
X13752260Y1512000D01*
X13663740Y1512000D01*
X13597557Y1518519D01*
X13531373Y1525037D01*
X13361534Y1576557D01*
X13205009Y1660222D01*
X13169271Y1689552D01*
X13067814Y1772814D01*
X12984552Y1874271D01*
X12955222Y1910009D01*
X12871557Y2066534D01*
X12820037Y2236373D01*
X12802641Y2413000D01*
X12820037Y2589627D01*
X12871557Y2759466D01*
X12955222Y2915991D01*
X12984552Y2951729D01*
X13067814Y3053186D01*
X13169271Y3136448D01*
X13205009Y3165778D01*
X13361534Y3249443D01*
X13531373Y3300963D01*
X13597558Y3307482D01*
X13663740Y3314000D01*
X13752260Y3314000D01*
X13818442Y3307482D01*
X13818442Y3307482D01*
G37*
G36*
X11278442Y3307482D02*
G01*
X11344627Y3300963D01*
X11514466Y3249443D01*
X11670991Y3165778D01*
X11706729Y3136448D01*
X11808186Y3053186D01*
X11891448Y2951729D01*
X11920778Y2915991D01*
X12004443Y2759466D01*
X12055963Y2589627D01*
X12073359Y2413000D01*
X12055963Y2236373D01*
X12004443Y2066534D01*
X11920778Y1910009D01*
X11891448Y1874271D01*
X11808186Y1772814D01*
X11706729Y1689552D01*
X11670991Y1660222D01*
X11514466Y1576557D01*
X11344627Y1525037D01*
X11278443Y1518519D01*
X11212260Y1512000D01*
X11123740Y1512000D01*
X11057557Y1518519D01*
X10991373Y1525037D01*
X10821534Y1576557D01*
X10665009Y1660222D01*
X10629271Y1689552D01*
X10527814Y1772814D01*
X10444552Y1874271D01*
X10415222Y1910009D01*
X10331557Y2066534D01*
X10280037Y2236373D01*
X10262641Y2413000D01*
X10280037Y2589627D01*
X10331557Y2759466D01*
X10415222Y2915991D01*
X10444552Y2951729D01*
X10527814Y3053186D01*
X10629271Y3136448D01*
X10665009Y3165778D01*
X10821534Y3249443D01*
X10991373Y3300963D01*
X11057558Y3307482D01*
X11123740Y3314000D01*
X11212260Y3314000D01*
X11278442Y3307482D01*
X11278442Y3307482D01*
G37*
G36*
X8738442Y3307482D02*
G01*
X8804627Y3300963D01*
X8974466Y3249443D01*
X9130991Y3165778D01*
X9166729Y3136448D01*
X9268186Y3053186D01*
X9351448Y2951729D01*
X9380778Y2915991D01*
X9464443Y2759466D01*
X9515963Y2589627D01*
X9533359Y2413000D01*
X9515963Y2236373D01*
X9464443Y2066534D01*
X9380778Y1910009D01*
X9351448Y1874271D01*
X9268186Y1772814D01*
X9166729Y1689552D01*
X9130991Y1660222D01*
X8974466Y1576557D01*
X8804627Y1525037D01*
X8738443Y1518519D01*
X8672260Y1512000D01*
X8583740Y1512000D01*
X8517557Y1518519D01*
X8451373Y1525037D01*
X8281534Y1576557D01*
X8125009Y1660222D01*
X8089271Y1689552D01*
X7987814Y1772814D01*
X7904552Y1874271D01*
X7875222Y1910009D01*
X7791557Y2066534D01*
X7740037Y2236373D01*
X7722641Y2413000D01*
X7740037Y2589627D01*
X7791557Y2759466D01*
X7875222Y2915991D01*
X7904552Y2951729D01*
X7987814Y3053186D01*
X8089271Y3136448D01*
X8125009Y3165778D01*
X8281534Y3249443D01*
X8451373Y3300963D01*
X8517558Y3307482D01*
X8583740Y3314000D01*
X8672260Y3314000D01*
X8738442Y3307482D01*
X8738442Y3307482D01*
G37*
G36*
X29058442Y3307482D02*
G01*
X29124627Y3300963D01*
X29294466Y3249443D01*
X29450991Y3165778D01*
X29486729Y3136448D01*
X29588186Y3053186D01*
X29671448Y2951729D01*
X29700778Y2915991D01*
X29784443Y2759466D01*
X29835963Y2589627D01*
X29853359Y2413000D01*
X29835963Y2236373D01*
X29784443Y2066534D01*
X29700778Y1910009D01*
X29671448Y1874271D01*
X29588186Y1772814D01*
X29486729Y1689552D01*
X29450991Y1660222D01*
X29294466Y1576557D01*
X29124627Y1525037D01*
X29058443Y1518519D01*
X28992260Y1512000D01*
X28903740Y1512000D01*
X28837557Y1518519D01*
X28771373Y1525037D01*
X28601534Y1576557D01*
X28445009Y1660222D01*
X28409271Y1689552D01*
X28307814Y1772814D01*
X28224552Y1874271D01*
X28195222Y1910009D01*
X28111557Y2066534D01*
X28060037Y2236373D01*
X28042641Y2413000D01*
X28060037Y2589627D01*
X28111557Y2759466D01*
X28195222Y2915991D01*
X28224552Y2951729D01*
X28307814Y3053186D01*
X28409271Y3136448D01*
X28445009Y3165778D01*
X28601534Y3249443D01*
X28771373Y3300963D01*
X28837558Y3307482D01*
X28903740Y3314000D01*
X28992260Y3314000D01*
X29058442Y3307482D01*
X29058442Y3307482D01*
G37*
G36*
X23978442Y3307482D02*
G01*
X24044627Y3300963D01*
X24214466Y3249443D01*
X24370991Y3165778D01*
X24406729Y3136448D01*
X24508186Y3053186D01*
X24591448Y2951729D01*
X24620778Y2915991D01*
X24704443Y2759466D01*
X24755963Y2589627D01*
X24773359Y2413000D01*
X24755963Y2236373D01*
X24704443Y2066534D01*
X24620778Y1910009D01*
X24591448Y1874271D01*
X24508186Y1772814D01*
X24406729Y1689552D01*
X24370991Y1660222D01*
X24214466Y1576557D01*
X24044627Y1525037D01*
X23978443Y1518519D01*
X23912260Y1512000D01*
X23823740Y1512000D01*
X23757557Y1518519D01*
X23691373Y1525037D01*
X23521534Y1576557D01*
X23365009Y1660222D01*
X23329271Y1689552D01*
X23227814Y1772814D01*
X23144552Y1874271D01*
X23115222Y1910009D01*
X23031557Y2066534D01*
X22980037Y2236373D01*
X22962641Y2413000D01*
X22980037Y2589627D01*
X23031557Y2759466D01*
X23115222Y2915991D01*
X23144552Y2951729D01*
X23227814Y3053186D01*
X23329271Y3136448D01*
X23365009Y3165778D01*
X23521534Y3249443D01*
X23691373Y3300963D01*
X23757558Y3307482D01*
X23823740Y3314000D01*
X23912260Y3314000D01*
X23978442Y3307482D01*
X23978442Y3307482D01*
G37*
G36*
X2678000Y9359000D02*
G01*
X2076000Y9359000D01*
X2076000Y10361000D01*
X2678000Y10361000D01*
X2678000Y9359000D01*
X2678000Y9359000D01*
G37*
G36*
X4178000Y9359000D02*
G01*
X3576000Y9359000D01*
X3576000Y10361000D01*
X4178000Y10361000D01*
X4178000Y9359000D01*
X4178000Y9359000D01*
G37*
G36*
X50846943Y12260981D02*
G01*
X50913127Y12254463D01*
X51082966Y12202943D01*
X51239491Y12119278D01*
X51275229Y12089948D01*
X51376686Y12006686D01*
X51459948Y11905229D01*
X51489278Y11869491D01*
X51572943Y11712966D01*
X51624463Y11543127D01*
X51641859Y11366500D01*
X51624463Y11189873D01*
X51572943Y11020034D01*
X51489278Y10863509D01*
X51459948Y10827771D01*
X51376686Y10726314D01*
X51275229Y10643052D01*
X51239491Y10613722D01*
X51082966Y10530057D01*
X50913127Y10478537D01*
X50846942Y10472018D01*
X50780760Y10465500D01*
X50692240Y10465500D01*
X50626057Y10472019D01*
X50559873Y10478537D01*
X50390034Y10530057D01*
X50233509Y10613722D01*
X50197771Y10643052D01*
X50096314Y10726314D01*
X50013052Y10827771D01*
X49983722Y10863509D01*
X49900057Y11020034D01*
X49848537Y11189873D01*
X49831141Y11366500D01*
X49848537Y11543127D01*
X49900057Y11712966D01*
X49983722Y11869491D01*
X50013052Y11905229D01*
X50096314Y12006686D01*
X50197771Y12089948D01*
X50233509Y12119278D01*
X50390034Y12202943D01*
X50559873Y12254463D01*
X50626058Y12260982D01*
X50692240Y12267500D01*
X50780760Y12267500D01*
X50846943Y12260981D01*
X50846943Y12260981D01*
G37*
G36*
X4328000Y11034000D02*
G01*
X3426000Y11034000D01*
X3426000Y11886000D01*
X4328000Y11886000D01*
X4328000Y11034000D01*
X4328000Y11034000D01*
G37*
G36*
X2828000Y11034000D02*
G01*
X1926000Y11034000D01*
X1926000Y11886000D01*
X2828000Y11886000D01*
X2828000Y11034000D01*
X2828000Y11034000D01*
G37*
G36*
X2344818Y14052304D02*
G01*
X2458105Y14017938D01*
X2562512Y13962131D01*
X2654027Y13887027D01*
X2729131Y13795512D01*
X2784938Y13691105D01*
X2819304Y13577818D01*
X2830907Y13460000D01*
X2819304Y13342182D01*
X2784938Y13228895D01*
X2729131Y13124488D01*
X2654027Y13032973D01*
X2562512Y12957869D01*
X2458105Y12902062D01*
X2344818Y12867696D01*
X2256519Y12859000D01*
X1397481Y12859000D01*
X1309182Y12867696D01*
X1195895Y12902062D01*
X1091488Y12957869D01*
X999973Y13032973D01*
X924869Y13124488D01*
X869062Y13228895D01*
X834696Y13342182D01*
X823093Y13460000D01*
X834696Y13577818D01*
X869062Y13691105D01*
X924869Y13795512D01*
X999973Y13887027D01*
X1091488Y13962131D01*
X1195895Y14017938D01*
X1309182Y14052304D01*
X1397481Y14061000D01*
X2256519Y14061000D01*
X2344818Y14052304D01*
X2344818Y14052304D01*
G37*
G36*
X51637500Y13005500D02*
G01*
X49835500Y13005500D01*
X49835500Y14807500D01*
X51637500Y14807500D01*
X51637500Y13005500D01*
X51637500Y13005500D01*
G37*
G36*
X4753348Y15206180D02*
G01*
X4753350Y15206179D01*
X4753351Y15206179D01*
X4894574Y15147683D01*
X4894577Y15147681D01*
X5021669Y15062761D01*
X5129761Y14954669D01*
X5214681Y14827577D01*
X5214683Y14827574D01*
X5273179Y14686351D01*
X5303000Y14536429D01*
X5303000Y14383571D01*
X5273179Y14233649D01*
X5214683Y14092426D01*
X5214681Y14092423D01*
X5129761Y13965331D01*
X5021669Y13857239D01*
X4929289Y13795513D01*
X4894574Y13772317D01*
X4753351Y13713821D01*
X4753350Y13713821D01*
X4753348Y13713820D01*
X4603431Y13684000D01*
X4450569Y13684000D01*
X4300652Y13713820D01*
X4300650Y13713821D01*
X4300649Y13713821D01*
X4159426Y13772317D01*
X4124711Y13795513D01*
X4032331Y13857239D01*
X3924239Y13965331D01*
X3839319Y14092423D01*
X3839317Y14092426D01*
X3780821Y14233649D01*
X3751000Y14383571D01*
X3751000Y14536429D01*
X3780821Y14686351D01*
X3839317Y14827574D01*
X3839319Y14827577D01*
X3924239Y14954669D01*
X4032331Y15062761D01*
X4159423Y15147681D01*
X4159426Y15147683D01*
X4300649Y15206179D01*
X4300650Y15206179D01*
X4300652Y15206180D01*
X4450569Y15236000D01*
X4603431Y15236000D01*
X4753348Y15206180D01*
X4753348Y15206180D01*
G37*
G36*
X50783442Y18801482D02*
G01*
X50849627Y18794963D01*
X51019466Y18743443D01*
X51175991Y18659778D01*
X51211729Y18630448D01*
X51313186Y18547186D01*
X51396448Y18445729D01*
X51425778Y18409991D01*
X51509443Y18253466D01*
X51560963Y18083627D01*
X51578359Y17907000D01*
X51560963Y17730373D01*
X51509443Y17560534D01*
X51425778Y17404009D01*
X51396448Y17368271D01*
X51313186Y17266814D01*
X51211729Y17183552D01*
X51175991Y17154222D01*
X51019466Y17070557D01*
X50849627Y17019037D01*
X50783442Y17012518D01*
X50717260Y17006000D01*
X50628740Y17006000D01*
X50562558Y17012518D01*
X50496373Y17019037D01*
X50326534Y17070557D01*
X50170009Y17154222D01*
X50134271Y17183552D01*
X50032814Y17266814D01*
X49949552Y17368271D01*
X49920222Y17404009D01*
X49836557Y17560534D01*
X49785037Y17730373D01*
X49767641Y17907000D01*
X49785037Y18083627D01*
X49836557Y18253466D01*
X49920222Y18409991D01*
X49949552Y18445729D01*
X50032814Y18547186D01*
X50134271Y18630448D01*
X50170009Y18659778D01*
X50326534Y18743443D01*
X50496373Y18794963D01*
X50562558Y18801482D01*
X50628740Y18808000D01*
X50717260Y18808000D01*
X50783442Y18801482D01*
X50783442Y18801482D01*
G37*
G36*
X4753348Y20206180D02*
G01*
X4753350Y20206179D01*
X4753351Y20206179D01*
X4894574Y20147683D01*
X4894577Y20147681D01*
X5021669Y20062761D01*
X5129761Y19954669D01*
X5187874Y19867697D01*
X5214683Y19827574D01*
X5273179Y19686351D01*
X5273180Y19686348D01*
X5303000Y19536431D01*
X5303000Y19383571D01*
X5273179Y19233649D01*
X5214683Y19092426D01*
X5214681Y19092423D01*
X5129761Y18965331D01*
X5021669Y18857239D01*
X4947977Y18808000D01*
X4894574Y18772317D01*
X4753351Y18713821D01*
X4753350Y18713821D01*
X4753348Y18713820D01*
X4603431Y18684000D01*
X4450569Y18684000D01*
X4300652Y18713820D01*
X4300650Y18713821D01*
X4300649Y18713821D01*
X4159426Y18772317D01*
X4106023Y18808000D01*
X4032331Y18857239D01*
X3924239Y18965331D01*
X3839319Y19092423D01*
X3839317Y19092426D01*
X3780821Y19233649D01*
X3751000Y19383571D01*
X3751000Y19536431D01*
X3780820Y19686348D01*
X3780821Y19686351D01*
X3839317Y19827574D01*
X3866126Y19867697D01*
X3924239Y19954669D01*
X4032331Y20062761D01*
X4159423Y20147681D01*
X4159426Y20147683D01*
X4300649Y20206179D01*
X4300650Y20206179D01*
X4300652Y20206180D01*
X4450569Y20236000D01*
X4603431Y20236000D01*
X4753348Y20206180D01*
X4753348Y20206180D01*
G37*
G36*
X51574000Y19546000D02*
G01*
X49772000Y19546000D01*
X49772000Y21348000D01*
X51574000Y21348000D01*
X51574000Y19546000D01*
X51574000Y19546000D01*
G37*
G36*
X2344818Y21052304D02*
G01*
X2458105Y21017938D01*
X2562512Y20962131D01*
X2654027Y20887027D01*
X2729131Y20795512D01*
X2784938Y20691105D01*
X2819304Y20577818D01*
X2830907Y20460000D01*
X2819304Y20342182D01*
X2784938Y20228895D01*
X2729131Y20124488D01*
X2654027Y20032973D01*
X2562512Y19957869D01*
X2458105Y19902062D01*
X2344818Y19867696D01*
X2256519Y19859000D01*
X1397481Y19859000D01*
X1309182Y19867696D01*
X1195895Y19902062D01*
X1091488Y19957869D01*
X999973Y20032973D01*
X924869Y20124488D01*
X869062Y20228895D01*
X834696Y20342182D01*
X823093Y20460000D01*
X834696Y20577818D01*
X869062Y20691105D01*
X924869Y20795512D01*
X999973Y20887027D01*
X1091488Y20962131D01*
X1195895Y21017938D01*
X1309182Y21052304D01*
X1397481Y21061000D01*
X2256519Y21061000D01*
X2344818Y21052304D01*
X2344818Y21052304D01*
G37*
G36*
X9153000Y22959000D02*
G01*
X8301000Y22959000D01*
X8301000Y23861000D01*
X9153000Y23861000D01*
X9153000Y22959000D01*
X9153000Y22959000D01*
G37*
G36*
X50783442Y25532482D02*
G01*
X50849627Y25525963D01*
X51019466Y25474443D01*
X51175991Y25390778D01*
X51211729Y25361448D01*
X51313186Y25278186D01*
X51396448Y25176729D01*
X51425778Y25140991D01*
X51509443Y24984466D01*
X51560963Y24814627D01*
X51578359Y24638000D01*
X51560963Y24461373D01*
X51509443Y24291534D01*
X51425778Y24135009D01*
X51396448Y24099271D01*
X51313186Y23997814D01*
X51211729Y23914552D01*
X51175991Y23885222D01*
X51019466Y23801557D01*
X50849627Y23750037D01*
X50783442Y23743518D01*
X50717260Y23737000D01*
X50628740Y23737000D01*
X50562558Y23743518D01*
X50496373Y23750037D01*
X50326534Y23801557D01*
X50170009Y23885222D01*
X50134271Y23914552D01*
X50032814Y23997814D01*
X49949552Y24099271D01*
X49920222Y24135009D01*
X49836557Y24291534D01*
X49785037Y24461373D01*
X49767641Y24638000D01*
X49785037Y24814627D01*
X49836557Y24984466D01*
X49920222Y25140991D01*
X49949552Y25176729D01*
X50032814Y25278186D01*
X50134271Y25361448D01*
X50170009Y25390778D01*
X50326534Y25474443D01*
X50496373Y25525963D01*
X50562558Y25532482D01*
X50628740Y25539000D01*
X50717260Y25539000D01*
X50783442Y25532482D01*
X50783442Y25532482D01*
G37*
G36*
X9153000Y24459000D02*
G01*
X8301000Y24459000D01*
X8301000Y25361000D01*
X9153000Y25361000D01*
X9153000Y24459000D01*
X9153000Y24459000D01*
G37*
G36*
X10453000Y24759000D02*
G01*
X9601000Y24759000D01*
X9601000Y25661000D01*
X10453000Y25661000D01*
X10453000Y24759000D01*
X10453000Y24759000D01*
G37*
G36*
X12328000Y25509000D02*
G01*
X11326000Y25509000D01*
X11326000Y26111000D01*
X12328000Y26111000D01*
X12328000Y25509000D01*
X12328000Y25509000D01*
G37*
G36*
X13928000Y25509000D02*
G01*
X12926000Y25509000D01*
X12926000Y26111000D01*
X13928000Y26111000D01*
X13928000Y25509000D01*
X13928000Y25509000D01*
G37*
G36*
X15528000Y25509000D02*
G01*
X14526000Y25509000D01*
X14526000Y26111000D01*
X15528000Y26111000D01*
X15528000Y25509000D01*
X15528000Y25509000D01*
G37*
G36*
X10453000Y26259000D02*
G01*
X9601000Y26259000D01*
X9601000Y27161000D01*
X10453000Y27161000D01*
X10453000Y26259000D01*
X10453000Y26259000D01*
G37*
G36*
X51574000Y26277000D02*
G01*
X49772000Y26277000D01*
X49772000Y28079000D01*
X51574000Y28079000D01*
X51574000Y26277000D01*
X51574000Y26277000D01*
G37*
G36*
X15528000Y27009000D02*
G01*
X14526000Y27009000D01*
X14526000Y27611000D01*
X15528000Y27611000D01*
X15528000Y27009000D01*
X15528000Y27009000D01*
G37*
G36*
X12328000Y27009000D02*
G01*
X11326000Y27009000D01*
X11326000Y27611000D01*
X12328000Y27611000D01*
X12328000Y27009000D01*
X12328000Y27009000D01*
G37*
G36*
X13928000Y27009000D02*
G01*
X12926000Y27009000D01*
X12926000Y27611000D01*
X13928000Y27611000D01*
X13928000Y27009000D01*
X13928000Y27009000D01*
G37*
G36*
X51794730Y36600186D02*
G01*
X51962734Y36566768D01*
X52172203Y36480003D01*
X52360720Y36354040D01*
X52521040Y36193720D01*
X52647003Y36005203D01*
X52733768Y35795734D01*
X52778000Y35573364D01*
X52778000Y35346636D01*
X52733768Y35124266D01*
X52647003Y34914797D01*
X52521040Y34726280D01*
X52360720Y34565960D01*
X52172203Y34439997D01*
X51962734Y34353232D01*
X51851549Y34331116D01*
X51740365Y34309000D01*
X51513635Y34309000D01*
X51402451Y34331116D01*
X51291266Y34353232D01*
X51081797Y34439997D01*
X50893280Y34565960D01*
X50732960Y34726280D01*
X50606997Y34914797D01*
X50520232Y35124266D01*
X50476000Y35346636D01*
X50476000Y35573364D01*
X50520232Y35795734D01*
X50606997Y36005203D01*
X50732960Y36193720D01*
X50893280Y36354040D01*
X51081797Y36480003D01*
X51291266Y36566768D01*
X51459270Y36600186D01*
X51513635Y36611000D01*
X51740365Y36611000D01*
X51794730Y36600186D01*
X51794730Y36600186D01*
G37*
G36*
X2794730Y36600186D02*
G01*
X2962734Y36566768D01*
X3172203Y36480003D01*
X3360720Y36354040D01*
X3521040Y36193720D01*
X3647003Y36005203D01*
X3733768Y35795734D01*
X3778000Y35573364D01*
X3778000Y35346636D01*
X3733768Y35124266D01*
X3647003Y34914797D01*
X3521040Y34726280D01*
X3360720Y34565960D01*
X3172203Y34439997D01*
X2962734Y34353232D01*
X2851549Y34331116D01*
X2740365Y34309000D01*
X2513635Y34309000D01*
X2402451Y34331116D01*
X2291266Y34353232D01*
X2081797Y34439997D01*
X1893280Y34565960D01*
X1732960Y34726280D01*
X1606997Y34914797D01*
X1520232Y35124266D01*
X1476000Y35346636D01*
X1476000Y35573364D01*
X1520232Y35795734D01*
X1606997Y36005203D01*
X1732960Y36193720D01*
X1893280Y36354040D01*
X2081797Y36480003D01*
X2291266Y36566768D01*
X2459270Y36600186D01*
X2513635Y36611000D01*
X2740365Y36611000D01*
X2794730Y36600186D01*
X2794730Y36600186D01*
G37*
G36*
X7157442Y36854482D02*
G01*
X7223627Y36847963D01*
X7393466Y36796443D01*
X7549991Y36712778D01*
X7585729Y36683448D01*
X7687186Y36600186D01*
X7770448Y36498729D01*
X7799778Y36462991D01*
X7883443Y36306466D01*
X7934963Y36136627D01*
X7952359Y35960000D01*
X7934963Y35783373D01*
X7883443Y35613534D01*
X7799778Y35457009D01*
X7770448Y35421271D01*
X7687186Y35319814D01*
X7585729Y35236552D01*
X7549991Y35207222D01*
X7549989Y35207221D01*
X7394793Y35124266D01*
X7393466Y35123557D01*
X7223627Y35072037D01*
X7157442Y35065518D01*
X7091260Y35059000D01*
X7002740Y35059000D01*
X6936558Y35065518D01*
X6870373Y35072037D01*
X6700534Y35123557D01*
X6699208Y35124266D01*
X6544011Y35207221D01*
X6544009Y35207222D01*
X6508271Y35236552D01*
X6406814Y35319814D01*
X6323552Y35421271D01*
X6294222Y35457009D01*
X6210557Y35613534D01*
X6159037Y35783373D01*
X6141641Y35960000D01*
X6159037Y36136627D01*
X6210557Y36306466D01*
X6294222Y36462991D01*
X6323552Y36498729D01*
X6406814Y36600186D01*
X6508271Y36683448D01*
X6544009Y36712778D01*
X6700534Y36796443D01*
X6870373Y36847963D01*
X6936558Y36854482D01*
X7002740Y36861000D01*
X7091260Y36861000D01*
X7157442Y36854482D01*
X7157442Y36854482D01*
G37*
G36*
X9697442Y36854482D02*
G01*
X9763627Y36847963D01*
X9933466Y36796443D01*
X10089991Y36712778D01*
X10125729Y36683448D01*
X10227186Y36600186D01*
X10310448Y36498729D01*
X10339778Y36462991D01*
X10423443Y36306466D01*
X10474963Y36136627D01*
X10492359Y35960000D01*
X10474963Y35783373D01*
X10423443Y35613534D01*
X10339778Y35457009D01*
X10310448Y35421271D01*
X10227186Y35319814D01*
X10125729Y35236552D01*
X10089991Y35207222D01*
X10089989Y35207221D01*
X9934793Y35124266D01*
X9933466Y35123557D01*
X9763627Y35072037D01*
X9697442Y35065518D01*
X9631260Y35059000D01*
X9542740Y35059000D01*
X9476558Y35065518D01*
X9410373Y35072037D01*
X9240534Y35123557D01*
X9239208Y35124266D01*
X9084011Y35207221D01*
X9084009Y35207222D01*
X9048271Y35236552D01*
X8946814Y35319814D01*
X8863552Y35421271D01*
X8834222Y35457009D01*
X8750557Y35613534D01*
X8699037Y35783373D01*
X8681641Y35960000D01*
X8699037Y36136627D01*
X8750557Y36306466D01*
X8834222Y36462991D01*
X8863552Y36498729D01*
X8946814Y36600186D01*
X9048271Y36683448D01*
X9084009Y36712778D01*
X9240534Y36796443D01*
X9410373Y36847963D01*
X9476558Y36854482D01*
X9542740Y36861000D01*
X9631260Y36861000D01*
X9697442Y36854482D01*
X9697442Y36854482D01*
G37*
G36*
X12237442Y36854482D02*
G01*
X12303627Y36847963D01*
X12473466Y36796443D01*
X12629991Y36712778D01*
X12665729Y36683448D01*
X12767186Y36600186D01*
X12850448Y36498729D01*
X12879778Y36462991D01*
X12963443Y36306466D01*
X13014963Y36136627D01*
X13032359Y35960000D01*
X13014963Y35783373D01*
X12963443Y35613534D01*
X12879778Y35457009D01*
X12850448Y35421271D01*
X12767186Y35319814D01*
X12665729Y35236552D01*
X12629991Y35207222D01*
X12629989Y35207221D01*
X12474793Y35124266D01*
X12473466Y35123557D01*
X12303627Y35072037D01*
X12237442Y35065518D01*
X12171260Y35059000D01*
X12082740Y35059000D01*
X12016558Y35065518D01*
X11950373Y35072037D01*
X11780534Y35123557D01*
X11779208Y35124266D01*
X11624011Y35207221D01*
X11624009Y35207222D01*
X11588271Y35236552D01*
X11486814Y35319814D01*
X11403552Y35421271D01*
X11374222Y35457009D01*
X11290557Y35613534D01*
X11239037Y35783373D01*
X11221641Y35960000D01*
X11239037Y36136627D01*
X11290557Y36306466D01*
X11374222Y36462991D01*
X11403552Y36498729D01*
X11486814Y36600186D01*
X11588271Y36683448D01*
X11624009Y36712778D01*
X11780534Y36796443D01*
X11950373Y36847963D01*
X12016558Y36854482D01*
X12082740Y36861000D01*
X12171260Y36861000D01*
X12237442Y36854482D01*
X12237442Y36854482D01*
G37*
G36*
X14777442Y36854482D02*
G01*
X14843627Y36847963D01*
X15013466Y36796443D01*
X15169991Y36712778D01*
X15205729Y36683448D01*
X15307186Y36600186D01*
X15390448Y36498729D01*
X15419778Y36462991D01*
X15503443Y36306466D01*
X15554963Y36136627D01*
X15572359Y35960000D01*
X15554963Y35783373D01*
X15503443Y35613534D01*
X15419778Y35457009D01*
X15390448Y35421271D01*
X15307186Y35319814D01*
X15205729Y35236552D01*
X15169991Y35207222D01*
X15169989Y35207221D01*
X15014793Y35124266D01*
X15013466Y35123557D01*
X14843627Y35072037D01*
X14777442Y35065518D01*
X14711260Y35059000D01*
X14622740Y35059000D01*
X14556558Y35065518D01*
X14490373Y35072037D01*
X14320534Y35123557D01*
X14319208Y35124266D01*
X14164011Y35207221D01*
X14164009Y35207222D01*
X14128271Y35236552D01*
X14026814Y35319814D01*
X13943552Y35421271D01*
X13914222Y35457009D01*
X13830557Y35613534D01*
X13779037Y35783373D01*
X13761641Y35960000D01*
X13779037Y36136627D01*
X13830557Y36306466D01*
X13914222Y36462991D01*
X13943552Y36498729D01*
X14026814Y36600186D01*
X14128271Y36683448D01*
X14164009Y36712778D01*
X14320534Y36796443D01*
X14490373Y36847963D01*
X14556558Y36854482D01*
X14622740Y36861000D01*
X14711260Y36861000D01*
X14777442Y36854482D01*
X14777442Y36854482D01*
G37*
G36*
X17317442Y36854482D02*
G01*
X17383627Y36847963D01*
X17553466Y36796443D01*
X17709991Y36712778D01*
X17745729Y36683448D01*
X17847186Y36600186D01*
X17930448Y36498729D01*
X17959778Y36462991D01*
X18043443Y36306466D01*
X18094963Y36136627D01*
X18112359Y35960000D01*
X18094963Y35783373D01*
X18043443Y35613534D01*
X17959778Y35457009D01*
X17930448Y35421271D01*
X17847186Y35319814D01*
X17745729Y35236552D01*
X17709991Y35207222D01*
X17709989Y35207221D01*
X17554793Y35124266D01*
X17553466Y35123557D01*
X17383627Y35072037D01*
X17317442Y35065518D01*
X17251260Y35059000D01*
X17162740Y35059000D01*
X17096558Y35065518D01*
X17030373Y35072037D01*
X16860534Y35123557D01*
X16859208Y35124266D01*
X16704011Y35207221D01*
X16704009Y35207222D01*
X16668271Y35236552D01*
X16566814Y35319814D01*
X16483552Y35421271D01*
X16454222Y35457009D01*
X16370557Y35613534D01*
X16319037Y35783373D01*
X16301641Y35960000D01*
X16319037Y36136627D01*
X16370557Y36306466D01*
X16454222Y36462991D01*
X16483552Y36498729D01*
X16566814Y36600186D01*
X16668271Y36683448D01*
X16704009Y36712778D01*
X16860534Y36796443D01*
X17030373Y36847963D01*
X17096558Y36854482D01*
X17162740Y36861000D01*
X17251260Y36861000D01*
X17317442Y36854482D01*
X17317442Y36854482D01*
G37*
G36*
X24937442Y36854482D02*
G01*
X25003627Y36847963D01*
X25173466Y36796443D01*
X25329991Y36712778D01*
X25365729Y36683448D01*
X25467186Y36600186D01*
X25550448Y36498729D01*
X25579778Y36462991D01*
X25663443Y36306466D01*
X25714963Y36136627D01*
X25732359Y35960000D01*
X25714963Y35783373D01*
X25663443Y35613534D01*
X25579778Y35457009D01*
X25550448Y35421271D01*
X25467186Y35319814D01*
X25365729Y35236552D01*
X25329991Y35207222D01*
X25329989Y35207221D01*
X25174793Y35124266D01*
X25173466Y35123557D01*
X25003627Y35072037D01*
X24937442Y35065518D01*
X24871260Y35059000D01*
X24782740Y35059000D01*
X24716558Y35065518D01*
X24650373Y35072037D01*
X24480534Y35123557D01*
X24479208Y35124266D01*
X24324011Y35207221D01*
X24324009Y35207222D01*
X24288271Y35236552D01*
X24186814Y35319814D01*
X24103552Y35421271D01*
X24074222Y35457009D01*
X23990557Y35613534D01*
X23939037Y35783373D01*
X23921641Y35960000D01*
X23939037Y36136627D01*
X23990557Y36306466D01*
X24074222Y36462991D01*
X24103552Y36498729D01*
X24186814Y36600186D01*
X24288271Y36683448D01*
X24324009Y36712778D01*
X24480534Y36796443D01*
X24650373Y36847963D01*
X24716558Y36854482D01*
X24782740Y36861000D01*
X24871260Y36861000D01*
X24937442Y36854482D01*
X24937442Y36854482D01*
G37*
G36*
X22397442Y36854482D02*
G01*
X22463627Y36847963D01*
X22633466Y36796443D01*
X22789991Y36712778D01*
X22825729Y36683448D01*
X22927186Y36600186D01*
X23010448Y36498729D01*
X23039778Y36462991D01*
X23123443Y36306466D01*
X23174963Y36136627D01*
X23192359Y35960000D01*
X23174963Y35783373D01*
X23123443Y35613534D01*
X23039778Y35457009D01*
X23010448Y35421271D01*
X22927186Y35319814D01*
X22825729Y35236552D01*
X22789991Y35207222D01*
X22789989Y35207221D01*
X22634793Y35124266D01*
X22633466Y35123557D01*
X22463627Y35072037D01*
X22397442Y35065518D01*
X22331260Y35059000D01*
X22242740Y35059000D01*
X22176558Y35065518D01*
X22110373Y35072037D01*
X21940534Y35123557D01*
X21939208Y35124266D01*
X21784011Y35207221D01*
X21784009Y35207222D01*
X21748271Y35236552D01*
X21646814Y35319814D01*
X21563552Y35421271D01*
X21534222Y35457009D01*
X21450557Y35613534D01*
X21399037Y35783373D01*
X21381641Y35960000D01*
X21399037Y36136627D01*
X21450557Y36306466D01*
X21534222Y36462991D01*
X21563552Y36498729D01*
X21646814Y36600186D01*
X21748271Y36683448D01*
X21784009Y36712778D01*
X21940534Y36796443D01*
X22110373Y36847963D01*
X22176558Y36854482D01*
X22242740Y36861000D01*
X22331260Y36861000D01*
X22397442Y36854482D01*
X22397442Y36854482D01*
G37*
G36*
X19857442Y36854482D02*
G01*
X19923627Y36847963D01*
X20093466Y36796443D01*
X20249991Y36712778D01*
X20285729Y36683448D01*
X20387186Y36600186D01*
X20470448Y36498729D01*
X20499778Y36462991D01*
X20583443Y36306466D01*
X20634963Y36136627D01*
X20652359Y35960000D01*
X20634963Y35783373D01*
X20583443Y35613534D01*
X20499778Y35457009D01*
X20470448Y35421271D01*
X20387186Y35319814D01*
X20285729Y35236552D01*
X20249991Y35207222D01*
X20249989Y35207221D01*
X20094793Y35124266D01*
X20093466Y35123557D01*
X19923627Y35072037D01*
X19857442Y35065518D01*
X19791260Y35059000D01*
X19702740Y35059000D01*
X19636558Y35065518D01*
X19570373Y35072037D01*
X19400534Y35123557D01*
X19399208Y35124266D01*
X19244011Y35207221D01*
X19244009Y35207222D01*
X19208271Y35236552D01*
X19106814Y35319814D01*
X19023552Y35421271D01*
X18994222Y35457009D01*
X18910557Y35613534D01*
X18859037Y35783373D01*
X18841641Y35960000D01*
X18859037Y36136627D01*
X18910557Y36306466D01*
X18994222Y36462991D01*
X19023552Y36498729D01*
X19106814Y36600186D01*
X19208271Y36683448D01*
X19244009Y36712778D01*
X19400534Y36796443D01*
X19570373Y36847963D01*
X19636558Y36854482D01*
X19702740Y36861000D01*
X19791260Y36861000D01*
X19857442Y36854482D01*
X19857442Y36854482D01*
G37*
G36*
X46048000Y35059000D02*
G01*
X44246000Y35059000D01*
X44246000Y36861000D01*
X46048000Y36861000D01*
X46048000Y35059000D01*
X46048000Y35059000D01*
G37*
G36*
X42717442Y36854482D02*
G01*
X42783627Y36847963D01*
X42953466Y36796443D01*
X43109991Y36712778D01*
X43145729Y36683448D01*
X43247186Y36600186D01*
X43330448Y36498729D01*
X43359778Y36462991D01*
X43443443Y36306466D01*
X43494963Y36136627D01*
X43512359Y35960000D01*
X43494963Y35783373D01*
X43443443Y35613534D01*
X43359778Y35457009D01*
X43330448Y35421271D01*
X43247186Y35319814D01*
X43145729Y35236552D01*
X43109991Y35207222D01*
X43109989Y35207221D01*
X42954793Y35124266D01*
X42953466Y35123557D01*
X42783627Y35072037D01*
X42717442Y35065518D01*
X42651260Y35059000D01*
X42562740Y35059000D01*
X42496558Y35065518D01*
X42430373Y35072037D01*
X42260534Y35123557D01*
X42259208Y35124266D01*
X42104011Y35207221D01*
X42104009Y35207222D01*
X42068271Y35236552D01*
X41966814Y35319814D01*
X41883552Y35421271D01*
X41854222Y35457009D01*
X41770557Y35613534D01*
X41719037Y35783373D01*
X41701641Y35960000D01*
X41719037Y36136627D01*
X41770557Y36306466D01*
X41854222Y36462991D01*
X41883552Y36498729D01*
X41966814Y36600186D01*
X42068271Y36683448D01*
X42104009Y36712778D01*
X42260534Y36796443D01*
X42430373Y36847963D01*
X42496558Y36854482D01*
X42562740Y36861000D01*
X42651260Y36861000D01*
X42717442Y36854482D01*
X42717442Y36854482D01*
G37*
G36*
X40177442Y36854482D02*
G01*
X40243627Y36847963D01*
X40413466Y36796443D01*
X40569991Y36712778D01*
X40605729Y36683448D01*
X40707186Y36600186D01*
X40790448Y36498729D01*
X40819778Y36462991D01*
X40903443Y36306466D01*
X40954963Y36136627D01*
X40972359Y35960000D01*
X40954963Y35783373D01*
X40903443Y35613534D01*
X40819778Y35457009D01*
X40790448Y35421271D01*
X40707186Y35319814D01*
X40605729Y35236552D01*
X40569991Y35207222D01*
X40569989Y35207221D01*
X40414793Y35124266D01*
X40413466Y35123557D01*
X40243627Y35072037D01*
X40177442Y35065518D01*
X40111260Y35059000D01*
X40022740Y35059000D01*
X39956558Y35065518D01*
X39890373Y35072037D01*
X39720534Y35123557D01*
X39719208Y35124266D01*
X39564011Y35207221D01*
X39564009Y35207222D01*
X39528271Y35236552D01*
X39426814Y35319814D01*
X39343552Y35421271D01*
X39314222Y35457009D01*
X39230557Y35613534D01*
X39179037Y35783373D01*
X39161641Y35960000D01*
X39179037Y36136627D01*
X39230557Y36306466D01*
X39314222Y36462991D01*
X39343552Y36498729D01*
X39426814Y36600186D01*
X39528271Y36683448D01*
X39564009Y36712778D01*
X39720534Y36796443D01*
X39890373Y36847963D01*
X39956558Y36854482D01*
X40022740Y36861000D01*
X40111260Y36861000D01*
X40177442Y36854482D01*
X40177442Y36854482D01*
G37*
G36*
X35097442Y36854482D02*
G01*
X35163627Y36847963D01*
X35333466Y36796443D01*
X35489991Y36712778D01*
X35525729Y36683448D01*
X35627186Y36600186D01*
X35710448Y36498729D01*
X35739778Y36462991D01*
X35823443Y36306466D01*
X35874963Y36136627D01*
X35892359Y35960000D01*
X35874963Y35783373D01*
X35823443Y35613534D01*
X35739778Y35457009D01*
X35710448Y35421271D01*
X35627186Y35319814D01*
X35525729Y35236552D01*
X35489991Y35207222D01*
X35489989Y35207221D01*
X35334793Y35124266D01*
X35333466Y35123557D01*
X35163627Y35072037D01*
X35097442Y35065518D01*
X35031260Y35059000D01*
X34942740Y35059000D01*
X34876558Y35065518D01*
X34810373Y35072037D01*
X34640534Y35123557D01*
X34639208Y35124266D01*
X34484011Y35207221D01*
X34484009Y35207222D01*
X34448271Y35236552D01*
X34346814Y35319814D01*
X34263552Y35421271D01*
X34234222Y35457009D01*
X34150557Y35613534D01*
X34099037Y35783373D01*
X34081641Y35960000D01*
X34099037Y36136627D01*
X34150557Y36306466D01*
X34234222Y36462991D01*
X34263552Y36498729D01*
X34346814Y36600186D01*
X34448271Y36683448D01*
X34484009Y36712778D01*
X34640534Y36796443D01*
X34810373Y36847963D01*
X34876558Y36854482D01*
X34942740Y36861000D01*
X35031260Y36861000D01*
X35097442Y36854482D01*
X35097442Y36854482D01*
G37*
G36*
X32557442Y36854482D02*
G01*
X32623627Y36847963D01*
X32793466Y36796443D01*
X32949991Y36712778D01*
X32985729Y36683448D01*
X33087186Y36600186D01*
X33170448Y36498729D01*
X33199778Y36462991D01*
X33283443Y36306466D01*
X33334963Y36136627D01*
X33352359Y35960000D01*
X33334963Y35783373D01*
X33283443Y35613534D01*
X33199778Y35457009D01*
X33170448Y35421271D01*
X33087186Y35319814D01*
X32985729Y35236552D01*
X32949991Y35207222D01*
X32949989Y35207221D01*
X32794793Y35124266D01*
X32793466Y35123557D01*
X32623627Y35072037D01*
X32557442Y35065518D01*
X32491260Y35059000D01*
X32402740Y35059000D01*
X32336558Y35065518D01*
X32270373Y35072037D01*
X32100534Y35123557D01*
X32099208Y35124266D01*
X31944011Y35207221D01*
X31944009Y35207222D01*
X31908271Y35236552D01*
X31806814Y35319814D01*
X31723552Y35421271D01*
X31694222Y35457009D01*
X31610557Y35613534D01*
X31559037Y35783373D01*
X31541641Y35960000D01*
X31559037Y36136627D01*
X31610557Y36306466D01*
X31694222Y36462991D01*
X31723552Y36498729D01*
X31806814Y36600186D01*
X31908271Y36683448D01*
X31944009Y36712778D01*
X32100534Y36796443D01*
X32270373Y36847963D01*
X32336558Y36854482D01*
X32402740Y36861000D01*
X32491260Y36861000D01*
X32557442Y36854482D01*
X32557442Y36854482D01*
G37*
G36*
X30017442Y36854482D02*
G01*
X30083627Y36847963D01*
X30253466Y36796443D01*
X30409991Y36712778D01*
X30445729Y36683448D01*
X30547186Y36600186D01*
X30630448Y36498729D01*
X30659778Y36462991D01*
X30743443Y36306466D01*
X30794963Y36136627D01*
X30812359Y35960000D01*
X30794963Y35783373D01*
X30743443Y35613534D01*
X30659778Y35457009D01*
X30630448Y35421271D01*
X30547186Y35319814D01*
X30445729Y35236552D01*
X30409991Y35207222D01*
X30409989Y35207221D01*
X30254793Y35124266D01*
X30253466Y35123557D01*
X30083627Y35072037D01*
X30017442Y35065518D01*
X29951260Y35059000D01*
X29862740Y35059000D01*
X29796558Y35065518D01*
X29730373Y35072037D01*
X29560534Y35123557D01*
X29559208Y35124266D01*
X29404011Y35207221D01*
X29404009Y35207222D01*
X29368271Y35236552D01*
X29266814Y35319814D01*
X29183552Y35421271D01*
X29154222Y35457009D01*
X29070557Y35613534D01*
X29019037Y35783373D01*
X29001641Y35960000D01*
X29019037Y36136627D01*
X29070557Y36306466D01*
X29154222Y36462991D01*
X29183552Y36498729D01*
X29266814Y36600186D01*
X29368271Y36683448D01*
X29404009Y36712778D01*
X29560534Y36796443D01*
X29730373Y36847963D01*
X29796558Y36854482D01*
X29862740Y36861000D01*
X29951260Y36861000D01*
X30017442Y36854482D01*
X30017442Y36854482D01*
G37*
G36*
X37637442Y36854482D02*
G01*
X37703627Y36847963D01*
X37873466Y36796443D01*
X38029991Y36712778D01*
X38065729Y36683448D01*
X38167186Y36600186D01*
X38250448Y36498729D01*
X38279778Y36462991D01*
X38363443Y36306466D01*
X38414963Y36136627D01*
X38432359Y35960000D01*
X38414963Y35783373D01*
X38363443Y35613534D01*
X38279778Y35457009D01*
X38250448Y35421271D01*
X38167186Y35319814D01*
X38065729Y35236552D01*
X38029991Y35207222D01*
X38029989Y35207221D01*
X37874793Y35124266D01*
X37873466Y35123557D01*
X37703627Y35072037D01*
X37637442Y35065518D01*
X37571260Y35059000D01*
X37482740Y35059000D01*
X37416558Y35065518D01*
X37350373Y35072037D01*
X37180534Y35123557D01*
X37179208Y35124266D01*
X37024011Y35207221D01*
X37024009Y35207222D01*
X36988271Y35236552D01*
X36886814Y35319814D01*
X36803552Y35421271D01*
X36774222Y35457009D01*
X36690557Y35613534D01*
X36639037Y35783373D01*
X36621641Y35960000D01*
X36639037Y36136627D01*
X36690557Y36306466D01*
X36774222Y36462991D01*
X36803552Y36498729D01*
X36886814Y36600186D01*
X36988271Y36683448D01*
X37024009Y36712778D01*
X37180534Y36796443D01*
X37350373Y36847963D01*
X37416558Y36854482D01*
X37482740Y36861000D01*
X37571260Y36861000D01*
X37637442Y36854482D01*
X37637442Y36854482D01*
G37*
G36*
X27477442Y36854482D02*
G01*
X27543627Y36847963D01*
X27713466Y36796443D01*
X27869991Y36712778D01*
X27905729Y36683448D01*
X28007186Y36600186D01*
X28090448Y36498729D01*
X28119778Y36462991D01*
X28203443Y36306466D01*
X28254963Y36136627D01*
X28272359Y35960000D01*
X28254963Y35783373D01*
X28203443Y35613534D01*
X28119778Y35457009D01*
X28090448Y35421271D01*
X28007186Y35319814D01*
X27905729Y35236552D01*
X27869991Y35207222D01*
X27869989Y35207221D01*
X27714793Y35124266D01*
X27713466Y35123557D01*
X27543627Y35072037D01*
X27477442Y35065518D01*
X27411260Y35059000D01*
X27322740Y35059000D01*
X27256558Y35065518D01*
X27190373Y35072037D01*
X27020534Y35123557D01*
X27019208Y35124266D01*
X26864011Y35207221D01*
X26864009Y35207222D01*
X26828271Y35236552D01*
X26726814Y35319814D01*
X26643552Y35421271D01*
X26614222Y35457009D01*
X26530557Y35613534D01*
X26479037Y35783373D01*
X26461641Y35960000D01*
X26479037Y36136627D01*
X26530557Y36306466D01*
X26614222Y36462991D01*
X26643552Y36498729D01*
X26726814Y36600186D01*
X26828271Y36683448D01*
X26864009Y36712778D01*
X27020534Y36796443D01*
X27190373Y36847963D01*
X27256558Y36854482D01*
X27322740Y36861000D01*
X27411260Y36861000D01*
X27477442Y36854482D01*
X27477442Y36854482D01*
G37*
M02*
