G04 #@! TF.GenerationSoftware,KiCad,Pcbnew,(5.1.4)-1*
G04 #@! TF.CreationDate,2020-08-02T15:41:35-03:00*
G04 #@! TF.ProjectId,esp32_energy_monitor,65737033-325f-4656-9e65-7267795f6d6f,A*
G04 #@! TF.SameCoordinates,PX6d8d2a8PY639eee0*
G04 #@! TF.FileFunction,Copper,L4,Bot*
G04 #@! TF.FilePolarity,Positive*
%FSLAX46Y46*%
G04 Gerber Fmt 4.6, Leading zero omitted, Abs format (unit mm)*
G04 Created by KiCad (PCBNEW (5.1.4)-1) date 2020-08-02 15:41:35*
%MOMM*%
%LPD*%
G04 APERTURE LIST*
G04 #@! TA.AperFunction,ComponentPad*
%ADD10O,1.900000X1.100000*%
G04 #@! TD*
G04 #@! TA.AperFunction,ComponentPad*
%ADD11C,1.450000*%
G04 #@! TD*
G04 #@! TA.AperFunction,SMDPad,CuDef*
%ADD12R,0.800000X0.750000*%
G04 #@! TD*
G04 #@! TA.AperFunction,SMDPad,CuDef*
%ADD13R,0.750000X0.800000*%
G04 #@! TD*
G04 #@! TA.AperFunction,SMDPad,CuDef*
%ADD14R,3.350000X3.350000*%
G04 #@! TD*
G04 #@! TA.AperFunction,SMDPad,CuDef*
%ADD15R,0.300000X1.000000*%
G04 #@! TD*
G04 #@! TA.AperFunction,SMDPad,CuDef*
%ADD16R,1.000000X0.300000*%
G04 #@! TD*
G04 #@! TA.AperFunction,ComponentPad*
%ADD17O,1.700000X1.700000*%
G04 #@! TD*
G04 #@! TA.AperFunction,ComponentPad*
%ADD18R,1.700000X1.700000*%
G04 #@! TD*
G04 #@! TA.AperFunction,SMDPad,CuDef*
%ADD19R,0.500000X0.900000*%
G04 #@! TD*
G04 #@! TA.AperFunction,SMDPad,CuDef*
%ADD20R,0.900000X0.500000*%
G04 #@! TD*
G04 #@! TA.AperFunction,ViaPad*
%ADD21C,0.600000*%
G04 #@! TD*
G04 #@! TA.AperFunction,Conductor*
%ADD22C,1.000000*%
G04 #@! TD*
G04 #@! TA.AperFunction,Conductor*
%ADD23C,0.500000*%
G04 #@! TD*
G04 #@! TA.AperFunction,Conductor*
%ADD24C,0.250000*%
G04 #@! TD*
G04 #@! TA.AperFunction,Conductor*
%ADD25C,0.200000*%
G04 #@! TD*
G04 #@! TA.AperFunction,Conductor*
%ADD26C,0.254000*%
G04 #@! TD*
G04 APERTURE END LIST*
D10*
G04 #@! TO.P,J1,6*
G04 #@! TO.N,GNDD*
X1827000Y13460000D03*
D11*
X4527000Y19460000D03*
X4527000Y14460000D03*
D10*
X1827000Y20460000D03*
G04 #@! TD*
D12*
G04 #@! TO.P,C1,2*
G04 #@! TO.N,GNDD*
X2377000Y11460000D03*
G04 #@! TO.P,C1,1*
G04 #@! TO.N,GND*
X3877000Y11460000D03*
G04 #@! TD*
D13*
G04 #@! TO.P,C10,2*
G04 #@! TO.N,GND*
X10027000Y26710000D03*
G04 #@! TO.P,C10,1*
G04 #@! TO.N,+3V3*
X10027000Y25210000D03*
G04 #@! TD*
G04 #@! TO.P,C11,1*
G04 #@! TO.N,+3V3*
X8727000Y23410000D03*
G04 #@! TO.P,C11,2*
G04 #@! TO.N,GND*
X8727000Y24910000D03*
G04 #@! TD*
D14*
G04 #@! TO.P,IC2,29*
G04 #@! TO.N,GND*
X12527000Y21260000D03*
D15*
G04 #@! TO.P,IC2,28*
G04 #@! TO.N,DTR*
X11027000Y18910000D03*
G04 #@! TO.P,IC2,27*
G04 #@! TO.N,N/C*
X11527000Y18910000D03*
G04 #@! TO.P,IC2,26*
G04 #@! TO.N,RX0*
X12027000Y18910000D03*
G04 #@! TO.P,IC2,25*
G04 #@! TO.N,TX0*
X12527000Y18910000D03*
G04 #@! TO.P,IC2,24*
G04 #@! TO.N,RTS*
X13027000Y18910000D03*
G04 #@! TO.P,IC2,23*
G04 #@! TO.N,N/C*
X13527000Y18910000D03*
G04 #@! TO.P,IC2,22*
X14027000Y18910000D03*
D16*
G04 #@! TO.P,IC2,21*
X14877000Y19760000D03*
G04 #@! TO.P,IC2,20*
X14877000Y20260000D03*
G04 #@! TO.P,IC2,19*
X14877000Y20760000D03*
G04 #@! TO.P,IC2,18*
X14877000Y21260000D03*
G04 #@! TO.P,IC2,17*
X14877000Y21760000D03*
G04 #@! TO.P,IC2,16*
X14877000Y22260000D03*
G04 #@! TO.P,IC2,15*
X14877000Y22760000D03*
D15*
G04 #@! TO.P,IC2,14*
X14027000Y23610000D03*
G04 #@! TO.P,IC2,13*
X13527000Y23610000D03*
G04 #@! TO.P,IC2,12*
X13027000Y23610000D03*
G04 #@! TO.P,IC2,11*
X12527000Y23610000D03*
G04 #@! TO.P,IC2,10*
X12027000Y23610000D03*
G04 #@! TO.P,IC2,9*
G04 #@! TO.N,Net-(IC2-Pad9)*
X11527000Y23610000D03*
G04 #@! TO.P,IC2,8*
G04 #@! TO.N,Net-(IC2-Pad8)*
X11027000Y23610000D03*
D16*
G04 #@! TO.P,IC2,7*
G04 #@! TO.N,+3V3*
X10177000Y22760000D03*
G04 #@! TO.P,IC2,6*
X10177000Y22260000D03*
G04 #@! TO.P,IC2,5*
G04 #@! TO.N,USB_DN*
X10177000Y21760000D03*
G04 #@! TO.P,IC2,4*
G04 #@! TO.N,USB_DP*
X10177000Y21260000D03*
G04 #@! TO.P,IC2,3*
G04 #@! TO.N,GND*
X10177000Y20760000D03*
G04 #@! TO.P,IC2,2*
G04 #@! TO.N,N/C*
X10177000Y20260000D03*
G04 #@! TO.P,IC2,1*
X10177000Y19760000D03*
G04 #@! TD*
D17*
G04 #@! TO.P,J2,2*
G04 #@! TO.N,Net-(C2-Pad1)*
X50736500Y11366500D03*
D18*
G04 #@! TO.P,J2,1*
G04 #@! TO.N,ADC1_6*
X50736500Y13906500D03*
G04 #@! TD*
G04 #@! TO.P,J3,1*
G04 #@! TO.N,ADC1_7*
X50673000Y20447000D03*
D17*
G04 #@! TO.P,J3,2*
G04 #@! TO.N,Net-(C5-Pad1)*
X50673000Y17907000D03*
G04 #@! TD*
D18*
G04 #@! TO.P,J4,1*
G04 #@! TO.N,ADC1_4*
X50673000Y27178000D03*
D17*
G04 #@! TO.P,J4,2*
G04 #@! TO.N,Net-(C9-Pad1)*
X50673000Y24638000D03*
G04 #@! TD*
D18*
G04 #@! TO.P,J5,1*
G04 #@! TO.N,+3V3*
X44188000Y2413000D03*
D17*
G04 #@! TO.P,J5,2*
G04 #@! TO.N,IO25*
X41648000Y2413000D03*
G04 #@! TO.P,J5,3*
G04 #@! TO.N,SENSOR_VP*
X39108000Y2413000D03*
G04 #@! TO.P,J5,4*
G04 #@! TO.N,SENSOR_VN*
X36568000Y2413000D03*
G04 #@! TO.P,J5,5*
G04 #@! TO.N,SD2*
X34028000Y2413000D03*
G04 #@! TO.P,J5,6*
G04 #@! TO.N,SD3*
X31488000Y2413000D03*
G04 #@! TO.P,J5,7*
G04 #@! TO.N,SCS*
X28948000Y2413000D03*
G04 #@! TO.P,J5,8*
G04 #@! TO.N,CLK*
X26408000Y2413000D03*
G04 #@! TO.P,J5,9*
G04 #@! TO.N,SD0*
X23868000Y2413000D03*
G04 #@! TO.P,J5,10*
G04 #@! TO.N,SD1*
X21328000Y2413000D03*
G04 #@! TO.P,J5,11*
G04 #@! TO.N,ADC1_7*
X18788000Y2413000D03*
G04 #@! TO.P,J5,12*
G04 #@! TO.N,ADC1_6*
X16248000Y2413000D03*
G04 #@! TO.P,J5,13*
G04 #@! TO.N,ADC1_4*
X13708000Y2413000D03*
G04 #@! TO.P,J5,14*
G04 #@! TO.N,IO33*
X11168000Y2413000D03*
G04 #@! TO.P,J5,15*
G04 #@! TO.N,IO26*
X8628000Y2413000D03*
G04 #@! TO.P,J5,16*
G04 #@! TO.N,IO27*
X6088000Y2413000D03*
G04 #@! TD*
G04 #@! TO.P,J6,16*
G04 #@! TO.N,GND*
X7047000Y35960000D03*
G04 #@! TO.P,J6,15*
X9587000Y35960000D03*
G04 #@! TO.P,J6,14*
G04 #@! TO.N,IO23*
X12127000Y35960000D03*
G04 #@! TO.P,J6,13*
G04 #@! TO.N,IO22*
X14667000Y35960000D03*
G04 #@! TO.P,J6,12*
G04 #@! TO.N,IO21*
X17207000Y35960000D03*
G04 #@! TO.P,J6,11*
G04 #@! TO.N,IO19*
X19747000Y35960000D03*
G04 #@! TO.P,J6,10*
G04 #@! TO.N,IO4*
X22287000Y35960000D03*
G04 #@! TO.P,J6,9*
G04 #@! TO.N,IO16*
X24827000Y35960000D03*
G04 #@! TO.P,J6,8*
G04 #@! TO.N,IO17*
X27367000Y35960000D03*
G04 #@! TO.P,J6,7*
G04 #@! TO.N,IO18*
X29907000Y35960000D03*
G04 #@! TO.P,J6,6*
G04 #@! TO.N,IO5*
X32447000Y35960000D03*
G04 #@! TO.P,J6,5*
G04 #@! TO.N,IO2*
X34987000Y35960000D03*
G04 #@! TO.P,J6,4*
G04 #@! TO.N,IO15*
X37527000Y35960000D03*
G04 #@! TO.P,J6,3*
G04 #@! TO.N,IO13*
X40067000Y35960000D03*
G04 #@! TO.P,J6,2*
G04 #@! TO.N,IO12*
X42607000Y35960000D03*
D18*
G04 #@! TO.P,J6,1*
G04 #@! TO.N,IO14*
X45147000Y35960000D03*
G04 #@! TD*
D19*
G04 #@! TO.P,R3,2*
G04 #@! TO.N,GNDD*
X2377000Y9860000D03*
G04 #@! TO.P,R3,1*
G04 #@! TO.N,GND*
X3877000Y9860000D03*
G04 #@! TD*
D20*
G04 #@! TO.P,R10,1*
G04 #@! TO.N,Net-(IC2-Pad8)*
X13427000Y25810000D03*
G04 #@! TO.P,R10,2*
G04 #@! TO.N,VBUS*
X13427000Y27310000D03*
G04 #@! TD*
G04 #@! TO.P,R11,1*
G04 #@! TO.N,GND*
X11827000Y27310000D03*
G04 #@! TO.P,R11,2*
G04 #@! TO.N,Net-(IC2-Pad8)*
X11827000Y25810000D03*
G04 #@! TD*
G04 #@! TO.P,R12,2*
G04 #@! TO.N,Net-(IC2-Pad9)*
X15027000Y25810000D03*
G04 #@! TO.P,R12,1*
G04 #@! TO.N,+3V3*
X15027000Y27310000D03*
G04 #@! TD*
D21*
G04 #@! TO.N,GND*
X27432000Y19304000D03*
X11527000Y20260000D03*
X13627000Y20260000D03*
X13627000Y22260000D03*
X11527000Y22260000D03*
X31115000Y22733000D03*
X29210000Y20955000D03*
X27432000Y22733000D03*
X31115000Y20955000D03*
X27432000Y20955000D03*
X29337000Y22733000D03*
X10861000Y11928000D03*
X10861000Y11228000D03*
X10861000Y10528000D03*
X31115000Y19304000D03*
X29210000Y19304000D03*
X3927000Y8660000D03*
X3927000Y21460000D03*
X7902022Y24960000D03*
X7727000Y19460000D03*
X5327000Y12660000D03*
X39127000Y9460000D03*
X6852000Y19560000D03*
X4226980Y27860000D03*
X7561000Y9628000D03*
X10261000Y6628000D03*
X2527000Y24660000D03*
X10927000Y27060000D03*
X7627000Y28260000D03*
X9127000Y26760000D03*
X4527000Y23460000D03*
X41727000Y15960000D03*
X6927012Y15010000D03*
X19812000Y12128500D03*
X12319000Y21260000D03*
X46736000Y8763000D03*
X48387000Y8636000D03*
X48895000Y2286000D03*
X34925000Y32385000D03*
X46736000Y22225000D03*
X48260000Y21971000D03*
X46609000Y15367000D03*
X48133000Y15113000D03*
G04 #@! TO.N,+3V3*
X12561000Y7528000D03*
X7979334Y23276906D03*
X9061000Y9628004D03*
X41627002Y13960000D03*
X41527000Y12060000D03*
X15103010Y28128012D03*
X46355000Y5207000D03*
X44958000Y15240000D03*
X45085000Y8763000D03*
X45085000Y22098000D03*
G04 #@! TO.N,GNDD*
X2327000Y8660000D03*
G04 #@! TO.N,EN*
X39377000Y17010000D03*
X18151012Y27559000D03*
X25273000Y26088839D03*
X21910051Y25847051D03*
G04 #@! TO.N,IO0*
X2627000Y26160000D03*
X17907000Y29845000D03*
X17281990Y17525999D03*
G04 #@! TO.N,IO21*
X22987000Y21717000D03*
X17145000Y32575500D03*
G04 #@! TO.N,VBUS*
X6227000Y22560000D03*
X11303000Y14732000D03*
G04 #@! TO.N,USB_DP*
X9127885Y18992940D03*
G04 #@! TO.N,USB_DN*
X8427885Y18992940D03*
G04 #@! TO.N,RTS*
X13525534Y17008917D03*
G04 #@! TO.N,TX0*
X15748000Y15748000D03*
G04 #@! TO.N,RX0*
X16510000Y15113000D03*
G04 #@! TO.N,DTR*
X15103010Y23960000D03*
X13906500Y14922500D03*
X16206969Y20574000D03*
G04 #@! TO.N,ADC1_6*
X22733000Y6477000D03*
X33794000Y19800000D03*
G04 #@! TO.N,ADC1_7*
X33782000Y21209000D03*
X21852357Y5591256D03*
G04 #@! TO.N,ADC1_4*
X33770000Y22340000D03*
G04 #@! TO.N,IO25*
X39243000Y25019000D03*
G04 #@! TO.N,SCS*
X26162000Y17526000D03*
X28067000Y24257000D03*
G04 #@! TO.N,IO33*
X33782000Y23749000D03*
G04 #@! TO.N,IO26*
X33782000Y26133977D03*
G04 #@! TO.N,IO27*
X33782000Y26933990D03*
G04 #@! TO.N,IO23*
X14033500Y28638500D03*
X12128500Y30343010D03*
G04 #@! TO.N,IO22*
X18034000Y15621000D03*
X14477990Y17399000D03*
X14732000Y30352998D03*
X14761795Y28969543D03*
G04 #@! TO.N,IO19*
X16637000Y29464000D03*
X16637000Y18669000D03*
G04 #@! TO.N,IO18*
X23632913Y23749000D03*
G04 #@! TO.N,IO17*
X22225000Y27813000D03*
G04 #@! TO.N,IO16*
X21463000Y28829000D03*
G04 #@! TO.N,IO5*
X24257913Y24892000D03*
G04 #@! TD*
D22*
G04 #@! TO.N,GND*
X3877000Y11460000D02*
X3877000Y9860000D01*
X3877000Y9860000D02*
X3877000Y8710000D01*
D23*
X3877000Y8710000D02*
X3927000Y8660000D01*
D24*
X11027000Y20760000D02*
X11527000Y20260000D01*
X10177000Y20760000D02*
X11027000Y20760000D01*
X8727000Y24910000D02*
X7952022Y24910000D01*
X7952022Y24910000D02*
X7902022Y24960000D01*
X11827000Y27310000D02*
X11127000Y27310000D01*
X10927000Y27110000D02*
X10927000Y27060000D01*
X11127000Y27310000D02*
X10927000Y27110000D01*
X9177000Y26710000D02*
X9127000Y26760000D01*
X10027000Y26710000D02*
X9177000Y26710000D01*
G04 #@! TO.N,+3V3*
X10177000Y22260000D02*
X10177000Y22610000D01*
X10177000Y22610000D02*
X10177000Y22760000D01*
X8727000Y23410000D02*
X8102000Y23410000D01*
X8102000Y23410000D02*
X7979334Y23287334D01*
X7979334Y23287334D02*
X7979334Y23276906D01*
X10127000Y22810000D02*
X10177000Y22760000D01*
X10027000Y25210000D02*
X10127000Y25110000D01*
X10127000Y25110000D02*
X10127000Y22810000D01*
X15027000Y27310000D02*
X15227000Y27310000D01*
X9627000Y22760000D02*
X10177000Y22760000D01*
X8727000Y23410000D02*
X8977000Y23410000D01*
X8977000Y23410000D02*
X9627000Y22760000D01*
X15027000Y28052002D02*
X15103010Y28128012D01*
X15027000Y27310000D02*
X15027000Y28052002D01*
D23*
G04 #@! TO.N,GNDD*
X2377000Y11460000D02*
X2377000Y9860000D01*
X2377000Y9860000D02*
X2377000Y8710000D01*
X2377000Y8710000D02*
X2327000Y8660000D01*
X2377000Y11460000D02*
X2377000Y12910000D01*
D24*
G04 #@! TO.N,EN*
X25572999Y26388838D02*
X25273000Y26088839D01*
X39377000Y22853000D02*
X34624999Y27605001D01*
X26789162Y27605001D02*
X25572999Y26388838D01*
X39377000Y17010000D02*
X39377000Y22853000D01*
X34624999Y27605001D02*
X26789162Y27605001D01*
X21610052Y26147050D02*
X21910051Y25847051D01*
X20198102Y27559000D02*
X21610052Y26147050D01*
X18151012Y27559000D02*
X20198102Y27559000D01*
G04 #@! TO.N,IO0*
X17607001Y30144999D02*
X17907000Y29845000D01*
X16773997Y30978003D02*
X17607001Y30144999D01*
X8845003Y30978003D02*
X16773997Y30978003D01*
X2627000Y26160000D02*
X4027000Y26160000D01*
X4027000Y26160000D02*
X8845003Y30978003D01*
X17907000Y29845000D02*
X17281990Y29219990D01*
X17281990Y29219990D02*
X17281990Y17950263D01*
X17281990Y17950263D02*
X17281990Y17525999D01*
G04 #@! TO.N,IO21*
X17145000Y32151236D02*
X17145000Y32575500D01*
X17145000Y31496000D02*
X17145000Y32151236D01*
X22987000Y25654000D02*
X17145000Y31496000D01*
X22987000Y21717000D02*
X22987000Y25654000D01*
G04 #@! TO.N,VBUS*
X6227000Y22984264D02*
X6227000Y22560000D01*
X6227000Y25159988D02*
X6227000Y22984264D01*
X9277001Y28209989D02*
X6227000Y25159988D01*
X12977011Y28209989D02*
X9277001Y28209989D01*
X13427000Y27310000D02*
X13427000Y27760000D01*
X13427000Y27760000D02*
X12977011Y28209989D01*
D25*
G04 #@! TO.N,USB_DP*
X9802000Y21285000D02*
X9827000Y21260000D01*
X9127885Y18992940D02*
X8927885Y19192940D01*
X8927885Y19192940D02*
X8927885Y20918751D01*
X9369134Y21360000D02*
X9440998Y21360000D01*
X8927885Y20918751D02*
X9369134Y21360000D01*
X9440998Y21360000D02*
X9460999Y21339999D01*
X9460999Y21339999D02*
X9747001Y21339999D01*
X9747001Y21339999D02*
X9827000Y21260000D01*
X9827000Y21260000D02*
X10177000Y21260000D01*
G04 #@! TO.N,USB_DN*
X9802000Y21735000D02*
X9827000Y21760000D01*
X8427885Y18992940D02*
X8627885Y19192940D01*
X8627885Y19192940D02*
X8627885Y21043019D01*
X9827000Y21760000D02*
X10177000Y21760000D01*
X9440998Y21660000D02*
X9460999Y21680001D01*
X9244866Y21660000D02*
X9440998Y21660000D01*
X8627885Y21043019D02*
X9244866Y21660000D01*
X9460999Y21680001D02*
X9747001Y21680001D01*
X9747001Y21680001D02*
X9827000Y21760000D01*
D24*
G04 #@! TO.N,RTS*
X13027000Y17507451D02*
X13225535Y17308916D01*
X13225535Y17308916D02*
X13525534Y17008917D01*
X13027000Y18910000D02*
X13027000Y17507451D01*
G04 #@! TO.N,TX0*
X15112085Y16383915D02*
X15448001Y16047999D01*
X15448001Y16047999D02*
X15748000Y15748000D01*
X12527000Y18910000D02*
X12527000Y17082447D01*
X12527000Y17082447D02*
X13225532Y16383915D01*
X13225532Y16383915D02*
X15112085Y16383915D01*
G04 #@! TO.N,RX0*
X12027000Y16946036D02*
X13098036Y15875000D01*
X13098036Y15875000D02*
X14695998Y15875000D01*
X16085736Y15113000D02*
X16510000Y15113000D01*
X12027000Y18910000D02*
X12027000Y16946036D01*
X14695998Y15875000D02*
X15457998Y15113000D01*
X15457998Y15113000D02*
X16085736Y15113000D01*
G04 #@! TO.N,DTR*
X13482236Y14922500D02*
X13906500Y14922500D01*
X11027000Y18910000D02*
X11027000Y17309625D01*
X11027000Y17309625D02*
X13414125Y14922500D01*
X13414125Y14922500D02*
X13482236Y14922500D01*
X15103010Y23960000D02*
X16206969Y22856041D01*
X16206969Y22856041D02*
X16206969Y20998264D01*
X16206969Y20998264D02*
X16206969Y20574000D01*
G04 #@! TO.N,Net-(IC2-Pad9)*
X11527000Y24360000D02*
X11527000Y23610000D01*
X12227000Y25060000D02*
X11527000Y24360000D01*
X14527000Y25060000D02*
X12227000Y25060000D01*
X15027000Y25810000D02*
X15027000Y25560000D01*
X15027000Y25560000D02*
X14527000Y25060000D01*
G04 #@! TO.N,Net-(IC2-Pad8)*
X11027000Y24360000D02*
X11027000Y23610000D01*
X11027000Y24510000D02*
X11027000Y24360000D01*
X11827000Y25310000D02*
X11027000Y24510000D01*
X11827000Y25810000D02*
X11827000Y25310000D01*
X13427000Y25810000D02*
X11827000Y25810000D01*
G04 #@! TO.N,ADC1_6*
X33262000Y19800000D02*
X33794000Y19800000D01*
X32766000Y19304000D02*
X33262000Y19800000D01*
X22733000Y6477000D02*
X22733000Y7366000D01*
X32766000Y17399000D02*
X32766000Y19304000D01*
X22733000Y7366000D02*
X32766000Y17399000D01*
G04 #@! TO.N,ADC1_7*
X21852357Y7248767D02*
X21852357Y6015520D01*
X32315989Y19742989D02*
X32315989Y17712399D01*
X32315989Y17712399D02*
X21852357Y7248767D01*
X33782000Y21209000D02*
X32315989Y19742989D01*
X21852357Y6015520D02*
X21852357Y5591256D01*
G04 #@! TO.N,ADC1_4*
X32754000Y22340000D02*
X33770000Y22340000D01*
X13708000Y2413000D02*
X13708000Y3548000D01*
X13708000Y3548000D02*
X14339982Y4179982D01*
X14339982Y4179982D02*
X18147160Y4179982D01*
X18147160Y4179982D02*
X31865978Y17898800D01*
X31865978Y17898800D02*
X31865978Y21451978D01*
X31865978Y21451978D02*
X32754000Y22340000D01*
G04 #@! TO.N,IO25*
X39243000Y25019000D02*
X42926000Y21336000D01*
X42926000Y21336000D02*
X42926000Y5461000D01*
X41648000Y4183000D02*
X41648000Y2413000D01*
X42926000Y5461000D02*
X41648000Y4183000D01*
G04 #@! TO.N,SCS*
X27178000Y24257000D02*
X26162000Y23241000D01*
X26162000Y23241000D02*
X26162000Y17950264D01*
X26162000Y17950264D02*
X26162000Y17526000D01*
X28067000Y24257000D02*
X27178000Y24257000D01*
G04 #@! TO.N,IO33*
X33482001Y24048999D02*
X33782000Y23749000D01*
X32385000Y25146000D02*
X33482001Y24048999D01*
X27343824Y25146000D02*
X32385000Y25146000D01*
X25274023Y20575023D02*
X25274023Y23076199D01*
X25274023Y23076199D02*
X27343824Y25146000D01*
X11168000Y4056000D02*
X11741993Y4629993D01*
X11168000Y2413000D02*
X11168000Y4056000D01*
X11741993Y4629993D02*
X17960762Y4629993D01*
X22987000Y9656231D02*
X22987000Y18288000D01*
X17960762Y4629993D02*
X22987000Y9656231D01*
X22987000Y18288000D02*
X25274023Y20575023D01*
G04 #@! TO.N,IO26*
X33357736Y26133977D02*
X33782000Y26133977D01*
X24824012Y21012601D02*
X24824012Y23262599D01*
X8628000Y4056000D02*
X9652004Y5080004D01*
X8628000Y2413000D02*
X8628000Y4056000D01*
X9652004Y5080004D02*
X17774362Y5080004D01*
X17774362Y5080004D02*
X22536989Y9842631D01*
X22536989Y9842631D02*
X22536989Y18725579D01*
X27695390Y26133977D02*
X33357736Y26133977D01*
X24824012Y23262599D02*
X27695390Y26133977D01*
X22536989Y18725579D02*
X24824012Y21012601D01*
G04 #@! TO.N,IO27*
X33357736Y26933990D02*
X33782000Y26933990D01*
X27858992Y26933990D02*
X33357736Y26933990D01*
X24374001Y23448999D02*
X27858992Y26933990D01*
X24374001Y21199001D02*
X24374001Y23448999D01*
X6088000Y4183000D02*
X7435015Y5530015D01*
X7435015Y5530015D02*
X17587962Y5530015D01*
X17587962Y5530015D02*
X22086978Y10029031D01*
X22086978Y10029031D02*
X22086978Y18911978D01*
X6088000Y2413000D02*
X6088000Y4183000D01*
X22086978Y18911978D02*
X24374001Y21199001D01*
G04 #@! TO.N,IO23*
X13344990Y30343010D02*
X12128500Y30343010D01*
X14033500Y28638500D02*
X14033500Y29654500D01*
X14033500Y29654500D02*
X13344990Y30343010D01*
G04 #@! TO.N,IO22*
X14732000Y30352998D02*
X14732000Y28999338D01*
X14732000Y28999338D02*
X14761795Y28969543D01*
X16720011Y16934989D02*
X14942001Y16934989D01*
X14777989Y17099001D02*
X14477990Y17399000D01*
X14942001Y16934989D02*
X14777989Y17099001D01*
X18034000Y15621000D02*
X16720011Y16934989D01*
G04 #@! TO.N,IO19*
X16637000Y29039736D02*
X16637000Y29464000D01*
X16637000Y23622000D02*
X16637000Y29039736D01*
X16831979Y19288243D02*
X16831979Y23427021D01*
X16637000Y19093264D02*
X16831979Y19288243D01*
X16637000Y18669000D02*
X16637000Y19093264D01*
X16831979Y23427021D02*
X16637000Y23622000D01*
G04 #@! TO.N,IO18*
X23632913Y24173264D02*
X23632913Y23749000D01*
X23632913Y28077913D02*
X23632913Y24173264D01*
X29907000Y35960000D02*
X29907000Y34352000D01*
X29907000Y34352000D02*
X23632913Y28077913D01*
G04 #@! TO.N,IO17*
X27367000Y34757919D02*
X26010081Y33401000D01*
X27367000Y35960000D02*
X27367000Y34757919D01*
X26010081Y33401000D02*
X23114000Y33401000D01*
X23114000Y33401000D02*
X22352000Y32639000D01*
X22352000Y32639000D02*
X22352000Y27940000D01*
X22352000Y27940000D02*
X22225000Y27813000D01*
G04 #@! TO.N,IO16*
X21463000Y32893000D02*
X21463000Y28829000D01*
X22606000Y34036000D02*
X21463000Y32893000D01*
X24105081Y34036000D02*
X22606000Y34036000D01*
X24827000Y35960000D02*
X24827000Y34757919D01*
X24827000Y34757919D02*
X24105081Y34036000D01*
G04 #@! TO.N,IO5*
X32447000Y35960000D02*
X32447000Y34352000D01*
X24511000Y25145087D02*
X24257913Y24892000D01*
X24511000Y28024000D02*
X24511000Y25145087D01*
X28110000Y31623000D02*
X24511000Y28024000D01*
X29718000Y31623000D02*
X28110000Y31623000D01*
X32447000Y34352000D02*
X29718000Y31623000D01*
G04 #@! TD*
D26*
G04 #@! TO.N,GNDD*
G36*
X3033393Y20998326D02*
G01*
X4826733Y20496191D01*
X5003363Y20425993D01*
X5155817Y20324169D01*
X5283621Y20192731D01*
X5381134Y20037480D01*
X5446352Y19858959D01*
X5549847Y19444978D01*
X5576368Y19255094D01*
X5562260Y19063880D01*
X5503340Y18739820D01*
X5464429Y18611018D01*
X5401134Y18500588D01*
X5314598Y18407232D01*
X5209275Y18335759D01*
X5090566Y18289831D01*
X4957369Y18270777D01*
X4034932Y18244421D01*
X4024129Y18243651D01*
X3854821Y18224288D01*
X3833606Y18220005D01*
X3670044Y18172175D01*
X3649865Y18164353D01*
X3496799Y18089447D01*
X3487281Y18084275D01*
X3461658Y18068901D01*
X3447836Y18059308D01*
X3345042Y17977365D01*
X3321783Y17953147D01*
X3244057Y17847129D01*
X3227958Y17817664D01*
X3180732Y17694982D01*
X3172918Y17662325D01*
X3159495Y17531554D01*
X3158889Y17514739D01*
X3175058Y16981153D01*
X3176131Y16968090D01*
X3201817Y16776899D01*
X3207959Y16751449D01*
X3272302Y16569586D01*
X3283531Y16545937D01*
X3383796Y16381132D01*
X3399635Y16360288D01*
X3531562Y16219542D01*
X3551340Y16202389D01*
X3709322Y16091685D01*
X3732196Y16078951D01*
X3909521Y16002992D01*
X3934521Y15995218D01*
X4123654Y15957233D01*
X4136620Y15955319D01*
X4560922Y15914909D01*
X4738901Y15879539D01*
X4900174Y15811618D01*
X5044497Y15712657D01*
X5165977Y15586698D01*
X5259651Y15438888D01*
X5321692Y15275262D01*
X5350596Y15096126D01*
X5364701Y14856346D01*
X5355165Y14662020D01*
X5306078Y14480869D01*
X5219383Y14314420D01*
X5099085Y14170366D01*
X4945315Y14051161D01*
X3336343Y13061024D01*
X3325684Y13053691D01*
X3164140Y12929973D01*
X3145329Y12912255D01*
X3012173Y12758399D01*
X2997338Y12737239D01*
X2898083Y12559614D01*
X2887838Y12535892D01*
X2826591Y12341853D01*
X2821360Y12316546D01*
X2800659Y12114126D01*
X2800000Y12101205D01*
X2800000Y8857471D01*
X2782370Y8697123D01*
X2732581Y8551061D01*
X2652247Y8419305D01*
X2540352Y8303111D01*
X2494830Y8265176D01*
X2394025Y8200893D01*
X2288032Y8166524D01*
X2176806Y8159906D01*
X2067851Y8181390D01*
X1969952Y8229234D01*
X1888325Y8300858D01*
X1828365Y8391395D01*
X1791601Y8502594D01*
X870234Y13385834D01*
X854000Y13559437D01*
X854000Y20153766D01*
X871376Y20330189D01*
X921022Y20493850D01*
X1001638Y20644672D01*
X1110130Y20776870D01*
X1242328Y20885362D01*
X1393150Y20965978D01*
X1556811Y21015624D01*
X1733234Y21033000D01*
X2780957Y21033000D01*
X3033393Y20998326D01*
X3033393Y20998326D01*
G37*
X3033393Y20998326D02*
X4826733Y20496191D01*
X5003363Y20425993D01*
X5155817Y20324169D01*
X5283621Y20192731D01*
X5381134Y20037480D01*
X5446352Y19858959D01*
X5549847Y19444978D01*
X5576368Y19255094D01*
X5562260Y19063880D01*
X5503340Y18739820D01*
X5464429Y18611018D01*
X5401134Y18500588D01*
X5314598Y18407232D01*
X5209275Y18335759D01*
X5090566Y18289831D01*
X4957369Y18270777D01*
X4034932Y18244421D01*
X4024129Y18243651D01*
X3854821Y18224288D01*
X3833606Y18220005D01*
X3670044Y18172175D01*
X3649865Y18164353D01*
X3496799Y18089447D01*
X3487281Y18084275D01*
X3461658Y18068901D01*
X3447836Y18059308D01*
X3345042Y17977365D01*
X3321783Y17953147D01*
X3244057Y17847129D01*
X3227958Y17817664D01*
X3180732Y17694982D01*
X3172918Y17662325D01*
X3159495Y17531554D01*
X3158889Y17514739D01*
X3175058Y16981153D01*
X3176131Y16968090D01*
X3201817Y16776899D01*
X3207959Y16751449D01*
X3272302Y16569586D01*
X3283531Y16545937D01*
X3383796Y16381132D01*
X3399635Y16360288D01*
X3531562Y16219542D01*
X3551340Y16202389D01*
X3709322Y16091685D01*
X3732196Y16078951D01*
X3909521Y16002992D01*
X3934521Y15995218D01*
X4123654Y15957233D01*
X4136620Y15955319D01*
X4560922Y15914909D01*
X4738901Y15879539D01*
X4900174Y15811618D01*
X5044497Y15712657D01*
X5165977Y15586698D01*
X5259651Y15438888D01*
X5321692Y15275262D01*
X5350596Y15096126D01*
X5364701Y14856346D01*
X5355165Y14662020D01*
X5306078Y14480869D01*
X5219383Y14314420D01*
X5099085Y14170366D01*
X4945315Y14051161D01*
X3336343Y13061024D01*
X3325684Y13053691D01*
X3164140Y12929973D01*
X3145329Y12912255D01*
X3012173Y12758399D01*
X2997338Y12737239D01*
X2898083Y12559614D01*
X2887838Y12535892D01*
X2826591Y12341853D01*
X2821360Y12316546D01*
X2800659Y12114126D01*
X2800000Y12101205D01*
X2800000Y8857471D01*
X2782370Y8697123D01*
X2732581Y8551061D01*
X2652247Y8419305D01*
X2540352Y8303111D01*
X2494830Y8265176D01*
X2394025Y8200893D01*
X2288032Y8166524D01*
X2176806Y8159906D01*
X2067851Y8181390D01*
X1969952Y8229234D01*
X1888325Y8300858D01*
X1828365Y8391395D01*
X1791601Y8502594D01*
X870234Y13385834D01*
X854000Y13559437D01*
X854000Y20153766D01*
X871376Y20330189D01*
X921022Y20493850D01*
X1001638Y20644672D01*
X1110130Y20776870D01*
X1242328Y20885362D01*
X1393150Y20965978D01*
X1556811Y21015624D01*
X1733234Y21033000D01*
X2780957Y21033000D01*
X3033393Y20998326D01*
G04 #@! TO.N,VBUS*
G36*
X13354324Y28317851D02*
G01*
X13475267Y28275531D01*
X13568067Y28217221D01*
X13633811Y28151477D01*
X13651384Y28139735D01*
X13674363Y28116756D01*
X13742531Y28008267D01*
X13784851Y27887324D01*
X13800000Y27752873D01*
X13800000Y27568328D01*
X13786231Y27463743D01*
X13749077Y27374045D01*
X13689976Y27297024D01*
X13612955Y27237923D01*
X13523257Y27200769D01*
X13418672Y27187000D01*
X13286992Y27187000D01*
X13208580Y27199419D01*
X13146855Y27230870D01*
X13097870Y27279855D01*
X13066419Y27341580D01*
X13035306Y27538023D01*
X13029020Y27562113D01*
X13023028Y27575813D01*
X12973314Y27673382D01*
X12959891Y27694350D01*
X12949959Y27705528D01*
X12872528Y27782959D01*
X12853282Y27798753D01*
X12840382Y27806314D01*
X12742813Y27856028D01*
X12719629Y27865102D01*
X12705023Y27868306D01*
X12596867Y27885436D01*
X12577000Y27887000D01*
X12293061Y27887000D01*
X12277000Y27888582D01*
X11377000Y27888582D01*
X11360939Y27887000D01*
X9830205Y27887000D01*
X9818055Y27886417D01*
X9627593Y27868111D01*
X9603738Y27863483D01*
X9420248Y27809237D01*
X9397710Y27800150D01*
X9227912Y27711949D01*
X9207519Y27698736D01*
X9057627Y27579809D01*
X9048471Y27571801D01*
X6945266Y25546493D01*
X6936529Y25537189D01*
X6806645Y25384147D01*
X6792184Y25363154D01*
X6695481Y25187257D01*
X6685503Y25163798D01*
X6625878Y24972130D01*
X6620787Y24947151D01*
X6600641Y24747437D01*
X6600000Y24734691D01*
X6600000Y22219992D01*
X6587581Y22141580D01*
X6556130Y22079855D01*
X6507145Y22030870D01*
X6445420Y21999419D01*
X6367008Y21987000D01*
X6217701Y21987000D01*
X6140309Y21999791D01*
X6080462Y22031820D01*
X6033356Y22082202D01*
X5975424Y22204940D01*
X5954000Y22349627D01*
X5954000Y24868434D01*
X5969278Y25033974D01*
X6012993Y25188260D01*
X6084209Y25331944D01*
X6184046Y25464859D01*
X8518965Y28041321D01*
X8659279Y28166947D01*
X8816787Y28257462D01*
X8989623Y28313389D01*
X9176934Y28333000D01*
X13219873Y28333000D01*
X13354324Y28317851D01*
X13354324Y28317851D01*
G37*
X13354324Y28317851D02*
X13475267Y28275531D01*
X13568067Y28217221D01*
X13633811Y28151477D01*
X13651384Y28139735D01*
X13674363Y28116756D01*
X13742531Y28008267D01*
X13784851Y27887324D01*
X13800000Y27752873D01*
X13800000Y27568328D01*
X13786231Y27463743D01*
X13749077Y27374045D01*
X13689976Y27297024D01*
X13612955Y27237923D01*
X13523257Y27200769D01*
X13418672Y27187000D01*
X13286992Y27187000D01*
X13208580Y27199419D01*
X13146855Y27230870D01*
X13097870Y27279855D01*
X13066419Y27341580D01*
X13035306Y27538023D01*
X13029020Y27562113D01*
X13023028Y27575813D01*
X12973314Y27673382D01*
X12959891Y27694350D01*
X12949959Y27705528D01*
X12872528Y27782959D01*
X12853282Y27798753D01*
X12840382Y27806314D01*
X12742813Y27856028D01*
X12719629Y27865102D01*
X12705023Y27868306D01*
X12596867Y27885436D01*
X12577000Y27887000D01*
X12293061Y27887000D01*
X12277000Y27888582D01*
X11377000Y27888582D01*
X11360939Y27887000D01*
X9830205Y27887000D01*
X9818055Y27886417D01*
X9627593Y27868111D01*
X9603738Y27863483D01*
X9420248Y27809237D01*
X9397710Y27800150D01*
X9227912Y27711949D01*
X9207519Y27698736D01*
X9057627Y27579809D01*
X9048471Y27571801D01*
X6945266Y25546493D01*
X6936529Y25537189D01*
X6806645Y25384147D01*
X6792184Y25363154D01*
X6695481Y25187257D01*
X6685503Y25163798D01*
X6625878Y24972130D01*
X6620787Y24947151D01*
X6600641Y24747437D01*
X6600000Y24734691D01*
X6600000Y22219992D01*
X6587581Y22141580D01*
X6556130Y22079855D01*
X6507145Y22030870D01*
X6445420Y21999419D01*
X6367008Y21987000D01*
X6217701Y21987000D01*
X6140309Y21999791D01*
X6080462Y22031820D01*
X6033356Y22082202D01*
X5975424Y22204940D01*
X5954000Y22349627D01*
X5954000Y24868434D01*
X5969278Y25033974D01*
X6012993Y25188260D01*
X6084209Y25331944D01*
X6184046Y25464859D01*
X8518965Y28041321D01*
X8659279Y28166947D01*
X8816787Y28257462D01*
X8989623Y28313389D01*
X9176934Y28333000D01*
X13219873Y28333000D01*
X13354324Y28317851D01*
G04 #@! TD*
M02*
