M48
; DRILL file {KiCad (5.1.4)-1} date 02/08/2020 15:42:01
; FORMAT={3:3/ absolute / metric / suppress leading zeros}
; #@! TF.CreationDate,2020-08-02T15:42:01-03:00
; #@! TF.GenerationSoftware,Kicad,Pcbnew,(5.1.4)-1
; #@! TF.FileFunction,Plated,1,4,PTH
FMAT,2
METRIC,TZ
T1C0.300
T2C0.500
T3C0.850
T4C1.000
%
G90
G05
T1
X2327Y8660
X2527Y24660
X2627Y26160
X3927Y21460
X3927Y8660
X4227Y27860
X4527Y23460
X5327Y12660
X6227Y22560
X6852Y19560
X6927Y15010
X7561Y9628
X7627Y28260
X7727Y19460
X7902Y24960
X7979Y23277
X8428Y18993
X9061Y9628
X9127Y26760
X9128Y18993
X10261Y6628
X10861Y11928
X10861Y11228
X10861Y10528
X10927Y27060
X11303Y14732
X11527Y22260
X11527Y20260
X12129Y30343
X12319Y21260
X12561Y7528
X13526Y17009
X13627Y22260
X13627Y20260
X13907Y14923
X14034Y28639
X14478Y17399
X14732Y30353
X14762Y28970
X15103Y28128
X15103Y23960
X15748Y15748
X16207Y20574
X16510Y15113
X16637Y29464
X16637Y18669
X17145Y32576
X17282Y17526
X17907Y29845
X18034Y15621
X18151Y27559
X19812Y12129
X21463Y28829
X21852Y5591
X21910Y25847
X22225Y27813
X22733Y6477
X22987Y21717
X23633Y23749
X24258Y24892
X25273Y26089
X26162Y17526
X27432Y22733
X27432Y20955
X27432Y19304
X28067Y24257
X29210Y20955
X29210Y19304
X29337Y22733
X31115Y22733
X31115Y20955
X31115Y19304
X33770Y22340
X33782Y26934
X33782Y26134
X33782Y23749
X33782Y21209
X33794Y19800
X34925Y32385
X39127Y9460
X39243Y25019
X39377Y17010
X41527Y12060
X41627Y13960
X41727Y15960
X44958Y15240
X45085Y22098
X45085Y8763
X46355Y5207
X46609Y15367
X46736Y22225
X46736Y8763
X48133Y15113
X48260Y21971
X48387Y8636
X48895Y2286
T3
X4527Y19460
X4527Y14460
T4
X50673Y27178
X50673Y24638
X50737Y13907
X50737Y11367
X6088Y2413
X8628Y2413
X11168Y2413
X13708Y2413
X16248Y2413
X18788Y2413
X21328Y2413
X23868Y2413
X26408Y2413
X28948Y2413
X31488Y2413
X34028Y2413
X36568Y2413
X39108Y2413
X41648Y2413
X44188Y2413
X50673Y20447
X50673Y17907
X7047Y35960
X9587Y35960
X12127Y35960
X14667Y35960
X17207Y35960
X19747Y35960
X22287Y35960
X24827Y35960
X27367Y35960
X29907Y35960
X32447Y35960
X34987Y35960
X37527Y35960
X40067Y35960
X42607Y35960
X45147Y35960
T2
G00X2227Y20460
M15
G01X1427Y20460
M16
G05
G00X2227Y13460
M15
G01X1427Y13460
M16
G05
T0
M30
